M48
; DRILL file {KiCad 8.0.2} date 2025-12-30T14:28:19-0500
; FORMAT={-:-/ absolute / inch / decimal}
; #@! TF.CreationDate,2025-12-30T14:28:19-05:00
; #@! TF.GenerationSoftware,Kicad,Pcbnew,8.0.2
; #@! TF.FileFunction,Plated,1,2,PTH
FMAT,2
INCH
; #@! TA.AperFunction,Plated,PTH,ViaDrill
T1C0.0118
; #@! TA.AperFunction,Plated,PTH,ComponentDrill
T2C0.0236
; #@! TA.AperFunction,Plated,PTH,ComponentDrill
T3C0.0315
; #@! TA.AperFunction,Plated,PTH,ComponentDrill
T4C0.0433
; #@! TA.AperFunction,Plated,PTH,ComponentDrill
T5C0.0512
%
G90
G05
T1
X4.878Y-3.7402
X4.878Y-3.7717
X4.878Y-3.8071
X4.8791Y-3.626
X4.8791Y-3.6575
X4.8791Y-3.6929
X4.9083Y-3.7402
X4.9083Y-3.7717
X4.9083Y-3.8071
X4.9094Y-3.626
X4.9094Y-3.6575
X4.9094Y-3.6929
X4.9387Y-3.7402
X4.9387Y-3.7717
X4.9387Y-3.8071
X4.9398Y-3.626
X4.9398Y-3.6575
X4.9398Y-3.6929
X4.9691Y-3.7402
X4.9691Y-3.7717
X4.9691Y-3.8071
X4.9702Y-3.626
X4.9702Y-3.6575
X4.9702Y-3.6929
X5.0394Y-3.9646
X5.2244Y-3.4882
X5.374Y-3.4606
T2
X4.8071Y-3.4646
X4.8661Y-3.4646
T3
X4.7638Y-3.937
X4.7638Y-4.0157
X5.0569Y-3.4163
X5.1569Y-3.5163
X5.2569Y-3.4163
T4
X4.2835Y-3.5906
X4.6835Y-3.5906
X5.1772Y-3.664
X5.1772Y-4.064
T5
X4.4301Y-3.797
X4.4301Y-3.997
X5.5315Y-3.7974
X5.5315Y-3.9974
M30
