%TF.GenerationSoftware,KiCad,Pcbnew,8.0.2*%
%TF.CreationDate,2025-12-30T14:28:11-05:00*%
%TF.ProjectId,voltage regulator,766f6c74-6167-4652-9072-6567756c6174,rev?*%
%TF.SameCoordinates,Original*%
%TF.FileFunction,Copper,L1,Top*%
%TF.FilePolarity,Positive*%
%FSLAX46Y46*%
G04 Gerber Fmt 4.6, Leading zero omitted, Abs format (unit mm)*
G04 Created by KiCad (PCBNEW 8.0.2) date 2025-12-30 14:28:11*
%MOMM*%
%LPD*%
G01*
G04 APERTURE LIST*
G04 Aperture macros list*
%AMRoundRect*
0 Rectangle with rounded corners*
0 $1 Rounding radius*
0 $2 $3 $4 $5 $6 $7 $8 $9 X,Y pos of 4 corners*
0 Add a 4 corners polygon primitive as box body*
4,1,4,$2,$3,$4,$5,$6,$7,$8,$9,$2,$3,0*
0 Add four circle primitives for the rounded corners*
1,1,$1+$1,$2,$3*
1,1,$1+$1,$4,$5*
1,1,$1+$1,$6,$7*
1,1,$1+$1,$8,$9*
0 Add four rect primitives between the rounded corners*
20,1,$1+$1,$2,$3,$4,$5,0*
20,1,$1+$1,$4,$5,$6,$7,0*
20,1,$1+$1,$6,$7,$8,$9,0*
20,1,$1+$1,$8,$9,$2,$3,0*%
G04 Aperture macros list end*
%TA.AperFunction,SMDPad,CuDef*%
%ADD10RoundRect,0.250000X-0.400000X-0.625000X0.400000X-0.625000X0.400000X0.625000X-0.400000X0.625000X0*%
%TD*%
%TA.AperFunction,ComponentPad*%
%ADD11R,2.200000X2.200000*%
%TD*%
%TA.AperFunction,ComponentPad*%
%ADD12O,2.200000X2.200000*%
%TD*%
%TA.AperFunction,ComponentPad*%
%ADD13R,2.600000X2.600000*%
%TD*%
%TA.AperFunction,ComponentPad*%
%ADD14C,2.600000*%
%TD*%
%TA.AperFunction,SMDPad,CuDef*%
%ADD15RoundRect,0.250000X0.625000X-0.375000X0.625000X0.375000X-0.625000X0.375000X-0.625000X-0.375000X0*%
%TD*%
%TA.AperFunction,SMDPad,CuDef*%
%ADD16RoundRect,0.250000X-0.325000X-0.450000X0.325000X-0.450000X0.325000X0.450000X-0.325000X0.450000X0*%
%TD*%
%TA.AperFunction,ComponentPad*%
%ADD17C,1.440000*%
%TD*%
%TA.AperFunction,ComponentPad*%
%ADD18C,1.200000*%
%TD*%
%TA.AperFunction,SMDPad,CuDef*%
%ADD19RoundRect,0.375000X-0.625000X-0.375000X0.625000X-0.375000X0.625000X0.375000X-0.625000X0.375000X0*%
%TD*%
%TA.AperFunction,SMDPad,CuDef*%
%ADD20RoundRect,0.500000X-0.500000X-1.400000X0.500000X-1.400000X0.500000X1.400000X-0.500000X1.400000X0*%
%TD*%
%TA.AperFunction,SMDPad,CuDef*%
%ADD21RoundRect,0.250000X0.625000X-0.400000X0.625000X0.400000X-0.625000X0.400000X-0.625000X-0.400000X0*%
%TD*%
%TA.AperFunction,ComponentPad*%
%ADD22C,1.600000*%
%TD*%
%TA.AperFunction,ViaPad*%
%ADD23C,0.600000*%
%TD*%
%TA.AperFunction,Conductor*%
%ADD24C,0.200000*%
%TD*%
G04 APERTURE END LIST*
D10*
%TO.P,R1,1*%
%TO.N,+1.2V to +32V*%
X124650000Y-102800000D03*
%TO.P,R1,2*%
%TO.N,Net-(D2-A)*%
X127750000Y-102800000D03*
%TD*%
D11*
%TO.P,D2,1,K*%
%TO.N,+1.2V to +32V*%
X131500000Y-103225000D03*
D12*
%TO.P,D2,2,A*%
%TO.N,Net-(D2-A)*%
X131500000Y-93065000D03*
%TD*%
D10*
%TO.P,R2,1*%
%TO.N,+1.5V to +35V*%
X109850000Y-87100000D03*
%TO.P,R2,2*%
%TO.N,led*%
X112950000Y-87100000D03*
%TD*%
D13*
%TO.P,J1,1,Pin_1*%
%TO.N,+1.5V to +35V*%
X112525000Y-96445000D03*
D14*
%TO.P,J1,2,Pin_2*%
%TO.N,GND*%
X112525000Y-101525000D03*
%TD*%
D15*
%TO.P,D3,1,K*%
%TO.N,Net-(D3-K)*%
X142700000Y-89900000D03*
%TO.P,D3,2,A*%
%TO.N,led*%
X142700000Y-87100000D03*
%TD*%
D13*
%TO.P,J2,1,Pin_1*%
%TO.N,+1.2V to +32V*%
X140500000Y-101535000D03*
D14*
%TO.P,J2,2,Pin_2*%
%TO.N,GND*%
X140500000Y-96455000D03*
%TD*%
D16*
%TO.P,D4,1,K*%
%TO.N,led*%
X116400000Y-86700000D03*
%TO.P,D4,2,A*%
%TO.N,GND*%
X118450000Y-86700000D03*
%TD*%
D11*
%TO.P,D1,1,K*%
%TO.N,+1.5V to +35V*%
X108800000Y-91200000D03*
D12*
%TO.P,D1,2,A*%
%TO.N,+1.2V to +32V*%
X118960000Y-91200000D03*
%TD*%
D17*
%TO.P,RV1,1,1*%
%TO.N,Net-(D2-A)*%
X133525000Y-86775000D03*
%TO.P,RV1,2,2*%
%TO.N,GND*%
X130985000Y-89315000D03*
%TO.P,RV1,3,3*%
X128445000Y-86775000D03*
%TD*%
D18*
%TO.P,C1,1*%
%TO.N,Net-(D2-A)*%
X123600000Y-88000000D03*
%TO.P,C1,2*%
%TO.N,GND*%
X122100000Y-88000000D03*
%TD*%
D19*
%TO.P,U1,1,ADJ*%
%TO.N,Net-(D2-A)*%
X121850000Y-92200000D03*
%TO.P,U1,2,VI*%
%TO.N,+1.5V to +35V*%
X121850000Y-94500000D03*
D20*
X128150000Y-94500000D03*
D19*
%TO.P,U1,3,VO*%
%TO.N,+1.2V to +32V*%
X121850000Y-96800000D03*
%TD*%
D21*
%TO.P,R3,1*%
%TO.N,Net-(D3-K)*%
X139000000Y-90050000D03*
%TO.P,R3,2*%
%TO.N,GND*%
X139000000Y-86950000D03*
%TD*%
D22*
%TO.P,C2,1*%
%TO.N,+1.2V to +32V*%
X121000000Y-100000000D03*
%TO.P,C2,2*%
%TO.N,GND*%
X121000000Y-102000000D03*
%TD*%
D23*
%TO.N,Net-(D2-A)*%
X128000000Y-100700000D03*
%TO.N,GND*%
X126242856Y-93800000D03*
X124671428Y-96700000D03*
X126214284Y-95000000D03*
X126242856Y-92100000D03*
X136500000Y-87900000D03*
X125442856Y-95800000D03*
X132700000Y-88600000D03*
X123928572Y-92900000D03*
X123900000Y-96700000D03*
X125471428Y-92100000D03*
X125442856Y-95000000D03*
X125471428Y-92900000D03*
X126242856Y-92900000D03*
X124700000Y-93800000D03*
X123900000Y-95800000D03*
X124671428Y-95000000D03*
X123928572Y-92100000D03*
X124671428Y-95800000D03*
X123928572Y-93800000D03*
X126214284Y-95800000D03*
X124700000Y-92900000D03*
X125471428Y-93800000D03*
X123900000Y-95000000D03*
X126214284Y-96700000D03*
X125442856Y-96700000D03*
X124700000Y-92100000D03*
%TD*%
D24*
%TO.N,+1.2V to +32V*%
X118960000Y-93564594D02*
X118960000Y-91200000D01*
X124650000Y-100050000D02*
X124600000Y-100000000D01*
X121000000Y-100000000D02*
X121000000Y-97650000D01*
X121850000Y-96800000D02*
X121850000Y-96454594D01*
X128275000Y-100000000D02*
X131500000Y-103225000D01*
X124600000Y-100000000D02*
X128275000Y-100000000D01*
X138810000Y-103225000D02*
X140500000Y-101535000D01*
X121850000Y-96454594D02*
X118960000Y-93564594D01*
X121000000Y-100000000D02*
X124600000Y-100000000D01*
X121000000Y-97650000D02*
X121850000Y-96800000D01*
X124650000Y-102800000D02*
X124650000Y-100050000D01*
X131500000Y-103225000D02*
X138810000Y-103225000D01*
%TO.N,+1.5V to +35V*%
X128050000Y-94400000D02*
X128150000Y-94500000D01*
X109850000Y-90150000D02*
X108800000Y-91200000D01*
X120550000Y-89550000D02*
X120400000Y-89400000D01*
X120400000Y-89400000D02*
X117700000Y-89400000D01*
X117700000Y-89400000D02*
X112525000Y-94575000D01*
X112525000Y-96445000D02*
X112525000Y-94925000D01*
X121850000Y-94500000D02*
X120550000Y-93200000D01*
X112525000Y-94925000D02*
X108800000Y-91200000D01*
X112525000Y-94575000D02*
X112525000Y-96445000D01*
X121950000Y-94400000D02*
X128050000Y-94400000D01*
X120550000Y-93200000D02*
X120550000Y-89550000D01*
X121850000Y-94500000D02*
X121950000Y-94400000D01*
X109850000Y-87100000D02*
X109850000Y-90150000D01*
%TO.N,Net-(D2-A)*%
X133525000Y-91040000D02*
X133525000Y-86775000D01*
X131500000Y-93065000D02*
X133525000Y-91040000D01*
X133525000Y-86775000D02*
X132082502Y-86775000D01*
X121850000Y-89750000D02*
X123600000Y-88000000D01*
X127167500Y-88732500D02*
X131500000Y-93065000D01*
X126435000Y-88000000D02*
X127167500Y-88732500D01*
X121850000Y-92200000D02*
X121850000Y-89750000D01*
X127750000Y-102800000D02*
X127750000Y-100950000D01*
X127750000Y-100950000D02*
X128000000Y-100700000D01*
X130125002Y-88732500D02*
X127167500Y-88732500D01*
X132082502Y-86775000D02*
X130125002Y-88732500D01*
X123600000Y-88000000D02*
X126435000Y-88000000D01*
%TO.N,GND*%
X131985000Y-89315000D02*
X132700000Y-88600000D01*
X137450000Y-86950000D02*
X139000000Y-86950000D01*
X136500000Y-87900000D02*
X137450000Y-86950000D01*
X130985000Y-89315000D02*
X131985000Y-89315000D01*
X137000000Y-88950000D02*
X137000000Y-92955000D01*
X139000000Y-86950000D02*
X137000000Y-88950000D01*
X120800000Y-86700000D02*
X122100000Y-88000000D01*
X118450000Y-86700000D02*
X120800000Y-86700000D01*
X137000000Y-92955000D02*
X140500000Y-96455000D01*
%TO.N,led*%
X117400000Y-85700000D02*
X116400000Y-86700000D01*
X141300000Y-85700000D02*
X117400000Y-85700000D01*
X112950000Y-87100000D02*
X116000000Y-87100000D01*
X116000000Y-87100000D02*
X116400000Y-86700000D01*
X142700000Y-87100000D02*
X141300000Y-85700000D01*
%TO.N,Net-(D3-K)*%
X142550000Y-90050000D02*
X142700000Y-89900000D01*
X139000000Y-90050000D02*
X142550000Y-90050000D01*
%TD*%
M02*
