%TF.GenerationSoftware,KiCad,Pcbnew,8.0.2*%
%TF.CreationDate,2025-12-30T14:28:12-05:00*%
%TF.ProjectId,voltage regulator,766f6c74-6167-4652-9072-6567756c6174,rev?*%
%TF.SameCoordinates,Original*%
%TF.FileFunction,Legend,Top*%
%TF.FilePolarity,Positive*%
%FSLAX46Y46*%
G04 Gerber Fmt 4.6, Leading zero omitted, Abs format (unit mm)*
G04 Created by KiCad (PCBNEW 8.0.2) date 2025-12-30 14:28:12*
%MOMM*%
%LPD*%
G01*
G04 APERTURE LIST*
%ADD10C,0.150000*%
%ADD11C,0.120000*%
G04 APERTURE END LIST*
D10*
G36*
X133961273Y-91917302D02*
G01*
X134012681Y-91928772D01*
X134058713Y-91950949D01*
X134099368Y-91983830D01*
X134134648Y-92027418D01*
X134160047Y-92072406D01*
X134180191Y-92123474D01*
X134192964Y-92170674D01*
X134202087Y-92222096D01*
X134207561Y-92277740D01*
X134209386Y-92337606D01*
X134207561Y-92397472D01*
X134202087Y-92453116D01*
X134192964Y-92504538D01*
X134180191Y-92551738D01*
X134160047Y-92602806D01*
X134134648Y-92647794D01*
X134115146Y-92674012D01*
X134076795Y-92711482D01*
X134033067Y-92738246D01*
X133983964Y-92754305D01*
X133929484Y-92759658D01*
X133821040Y-92759658D01*
X133821040Y-91915554D01*
X133929484Y-91915554D01*
X133961273Y-91917302D01*
G37*
G36*
X136662542Y-93043692D02*
G01*
X133313279Y-93043692D01*
X133313279Y-92873719D01*
X135804536Y-92873719D01*
X135854967Y-92896655D01*
X135909021Y-92913957D01*
X135958237Y-92924304D01*
X136010115Y-92930512D01*
X136064655Y-92932581D01*
X136089237Y-92932165D01*
X136148874Y-92927474D01*
X136205911Y-92917572D01*
X136260348Y-92902458D01*
X136312185Y-92882133D01*
X136361423Y-92856596D01*
X136408060Y-92825847D01*
X136411902Y-92822995D01*
X136451451Y-92787940D01*
X136483098Y-92750211D01*
X136510642Y-92706901D01*
X136520202Y-92688117D01*
X136538525Y-92638152D01*
X136548204Y-92589513D01*
X136551431Y-92537397D01*
X136547691Y-92484182D01*
X136536471Y-92434204D01*
X136517771Y-92387462D01*
X136491591Y-92343956D01*
X136483896Y-92333680D01*
X136448190Y-92296486D01*
X136404608Y-92265551D01*
X136360013Y-92243618D01*
X136309386Y-92226475D01*
X136276319Y-92219037D01*
X136227661Y-92212906D01*
X136178472Y-92211088D01*
X136154578Y-92211637D01*
X136103106Y-92216025D01*
X136052580Y-92223728D01*
X136004327Y-92233558D01*
X136030949Y-92116810D01*
X136462771Y-92081639D01*
X136521877Y-91790258D01*
X136507955Y-91790258D01*
X136487821Y-91821032D01*
X136448059Y-91850708D01*
X136396825Y-91860600D01*
X135977460Y-91895771D01*
X135860712Y-92436036D01*
X135873413Y-92444584D01*
X135910873Y-92431636D01*
X135959111Y-92418538D01*
X136011043Y-92409496D01*
X136060503Y-92406482D01*
X136105963Y-92410269D01*
X136154021Y-92425182D01*
X136197034Y-92454354D01*
X136212805Y-92472031D01*
X136235782Y-92515987D01*
X136243440Y-92567683D01*
X136240967Y-92601022D01*
X136227984Y-92648283D01*
X136203873Y-92692247D01*
X136194848Y-92704237D01*
X136159592Y-92741757D01*
X136118632Y-92772358D01*
X136102817Y-92781795D01*
X136055934Y-92805491D01*
X136008967Y-92823893D01*
X136001564Y-92826378D01*
X135952303Y-92840990D01*
X135901500Y-92851737D01*
X135881866Y-92854783D01*
X135833112Y-92859553D01*
X135807223Y-92859553D01*
X135804536Y-92873719D01*
X133313279Y-92873719D01*
X133313279Y-92815833D01*
X133424390Y-92815833D01*
X133424390Y-92830000D01*
X133957572Y-92830000D01*
X134021884Y-92827965D01*
X134082563Y-92821863D01*
X134139609Y-92811693D01*
X134193022Y-92797454D01*
X134242801Y-92779147D01*
X134288948Y-92756772D01*
X134331462Y-92730329D01*
X134370342Y-92699818D01*
X134379478Y-92691582D01*
X134420809Y-92647419D01*
X134454888Y-92598283D01*
X134481717Y-92544174D01*
X134497959Y-92497306D01*
X134509560Y-92447256D01*
X134516521Y-92394022D01*
X134518842Y-92337606D01*
X134518820Y-92335408D01*
X134635101Y-92335408D01*
X134637418Y-92393767D01*
X134644367Y-92448920D01*
X134655950Y-92500867D01*
X134672165Y-92549609D01*
X134693014Y-92595145D01*
X134718495Y-92637475D01*
X134748609Y-92676600D01*
X134783357Y-92712519D01*
X134822096Y-92744690D01*
X134864064Y-92772572D01*
X134909260Y-92796164D01*
X134957685Y-92815467D01*
X135009339Y-92830480D01*
X135064221Y-92841204D01*
X135122331Y-92847638D01*
X135183671Y-92849783D01*
X135190703Y-92849756D01*
X135239618Y-92848012D01*
X135294862Y-92842700D01*
X135349405Y-92833846D01*
X135403245Y-92821451D01*
X135416035Y-92818078D01*
X135464698Y-92803673D01*
X135519914Y-92783617D01*
X135568893Y-92761284D01*
X135611634Y-92736672D01*
X135654690Y-92704131D01*
X135688765Y-92668311D01*
X135688765Y-92436036D01*
X135705618Y-92388897D01*
X135710461Y-92385119D01*
X135759107Y-92372777D01*
X135780112Y-92372777D01*
X135780112Y-92358611D01*
X135307502Y-92358611D01*
X135307502Y-92372777D01*
X135329972Y-92372777D01*
X135336163Y-92372919D01*
X135382729Y-92388897D01*
X135383901Y-92389919D01*
X135401780Y-92436036D01*
X135400314Y-92628743D01*
X135398356Y-92654065D01*
X135380682Y-92701684D01*
X135344627Y-92739385D01*
X135311933Y-92758748D01*
X135263653Y-92774708D01*
X135214690Y-92779441D01*
X135181644Y-92777682D01*
X135129049Y-92766136D01*
X135083116Y-92743815D01*
X135043845Y-92710718D01*
X135011235Y-92666845D01*
X135007133Y-92659717D01*
X134985254Y-92613143D01*
X134968064Y-92560043D01*
X134957320Y-92510808D01*
X134949831Y-92457042D01*
X134945599Y-92398743D01*
X134944557Y-92348841D01*
X134944873Y-92320967D01*
X134947401Y-92267872D01*
X134952458Y-92218318D01*
X134964783Y-92150623D01*
X134982797Y-92090892D01*
X135006500Y-92039125D01*
X135035892Y-91995322D01*
X135070972Y-91959484D01*
X135111741Y-91931609D01*
X135158198Y-91911699D01*
X135210344Y-91899753D01*
X135268179Y-91895771D01*
X135283562Y-91896027D01*
X135341667Y-91902193D01*
X135394285Y-91916578D01*
X135441414Y-91939184D01*
X135483055Y-91970010D01*
X135519209Y-92009057D01*
X135549875Y-92056323D01*
X135575053Y-92111810D01*
X135590335Y-92158820D01*
X135602791Y-92158820D01*
X135616958Y-91890153D01*
X135581710Y-91877315D01*
X135533408Y-91864004D01*
X135482785Y-91853177D01*
X135432554Y-91844480D01*
X135402440Y-91840015D01*
X135350272Y-91833633D01*
X135298783Y-91829075D01*
X135247971Y-91826340D01*
X135197837Y-91825429D01*
X135133509Y-91827539D01*
X135072784Y-91833870D01*
X135015662Y-91844422D01*
X134962142Y-91859195D01*
X134912225Y-91878189D01*
X134865911Y-91901403D01*
X134823199Y-91928839D01*
X134784089Y-91960495D01*
X134749170Y-91995899D01*
X134718907Y-92034577D01*
X134693300Y-92076529D01*
X134672348Y-92121756D01*
X134656053Y-92170258D01*
X134644413Y-92222033D01*
X134637429Y-92277083D01*
X134635101Y-92335408D01*
X134518820Y-92335408D01*
X134518697Y-92323203D01*
X134515216Y-92267583D01*
X134507095Y-92215145D01*
X134494333Y-92165890D01*
X134476931Y-92119818D01*
X134448652Y-92066703D01*
X134413123Y-92018562D01*
X134370342Y-91975394D01*
X134331462Y-91944883D01*
X134288948Y-91918439D01*
X134242801Y-91896064D01*
X134193022Y-91877758D01*
X134139609Y-91863519D01*
X134082563Y-91853349D01*
X134021884Y-91847246D01*
X133957572Y-91845212D01*
X133424390Y-91845212D01*
X133425855Y-91859378D01*
X133442708Y-91859378D01*
X133459805Y-91860829D01*
X133505234Y-91882581D01*
X133515893Y-91893235D01*
X133532589Y-91939490D01*
X133532589Y-92727418D01*
X133529932Y-92747077D01*
X133522683Y-92759658D01*
X133505234Y-92789944D01*
X133489722Y-92802459D01*
X133442708Y-92815833D01*
X133424390Y-92815833D01*
X133313279Y-92815833D01*
X133313279Y-91679147D01*
X136662542Y-91679147D01*
X136662542Y-93043692D01*
G37*
X126033333Y-101434819D02*
X125700000Y-100958628D01*
X125461905Y-101434819D02*
X125461905Y-100434819D01*
X125461905Y-100434819D02*
X125842857Y-100434819D01*
X125842857Y-100434819D02*
X125938095Y-100482438D01*
X125938095Y-100482438D02*
X125985714Y-100530057D01*
X125985714Y-100530057D02*
X126033333Y-100625295D01*
X126033333Y-100625295D02*
X126033333Y-100768152D01*
X126033333Y-100768152D02*
X125985714Y-100863390D01*
X125985714Y-100863390D02*
X125938095Y-100911009D01*
X125938095Y-100911009D02*
X125842857Y-100958628D01*
X125842857Y-100958628D02*
X125461905Y-100958628D01*
X126985714Y-101434819D02*
X126414286Y-101434819D01*
X126700000Y-101434819D02*
X126700000Y-100434819D01*
X126700000Y-100434819D02*
X126604762Y-100577676D01*
X126604762Y-100577676D02*
X126509524Y-100672914D01*
X126509524Y-100672914D02*
X126414286Y-100720533D01*
X131954819Y-98538094D02*
X130954819Y-98538094D01*
X130954819Y-98538094D02*
X130954819Y-98299999D01*
X130954819Y-98299999D02*
X131002438Y-98157142D01*
X131002438Y-98157142D02*
X131097676Y-98061904D01*
X131097676Y-98061904D02*
X131192914Y-98014285D01*
X131192914Y-98014285D02*
X131383390Y-97966666D01*
X131383390Y-97966666D02*
X131526247Y-97966666D01*
X131526247Y-97966666D02*
X131716723Y-98014285D01*
X131716723Y-98014285D02*
X131811961Y-98061904D01*
X131811961Y-98061904D02*
X131907200Y-98157142D01*
X131907200Y-98157142D02*
X131954819Y-98299999D01*
X131954819Y-98299999D02*
X131954819Y-98538094D01*
X131050057Y-97585713D02*
X131002438Y-97538094D01*
X131002438Y-97538094D02*
X130954819Y-97442856D01*
X130954819Y-97442856D02*
X130954819Y-97204761D01*
X130954819Y-97204761D02*
X131002438Y-97109523D01*
X131002438Y-97109523D02*
X131050057Y-97061904D01*
X131050057Y-97061904D02*
X131145295Y-97014285D01*
X131145295Y-97014285D02*
X131240533Y-97014285D01*
X131240533Y-97014285D02*
X131383390Y-97061904D01*
X131383390Y-97061904D02*
X131954819Y-97633332D01*
X131954819Y-97633332D02*
X131954819Y-97014285D01*
X129854819Y-103486904D02*
X128854819Y-103486904D01*
X129854819Y-102915476D02*
X129283390Y-103344047D01*
X128854819Y-102915476D02*
X129426247Y-103486904D01*
X111233333Y-85734819D02*
X110900000Y-85258628D01*
X110661905Y-85734819D02*
X110661905Y-84734819D01*
X110661905Y-84734819D02*
X111042857Y-84734819D01*
X111042857Y-84734819D02*
X111138095Y-84782438D01*
X111138095Y-84782438D02*
X111185714Y-84830057D01*
X111185714Y-84830057D02*
X111233333Y-84925295D01*
X111233333Y-84925295D02*
X111233333Y-85068152D01*
X111233333Y-85068152D02*
X111185714Y-85163390D01*
X111185714Y-85163390D02*
X111138095Y-85211009D01*
X111138095Y-85211009D02*
X111042857Y-85258628D01*
X111042857Y-85258628D02*
X110661905Y-85258628D01*
X111614286Y-84830057D02*
X111661905Y-84782438D01*
X111661905Y-84782438D02*
X111757143Y-84734819D01*
X111757143Y-84734819D02*
X111995238Y-84734819D01*
X111995238Y-84734819D02*
X112090476Y-84782438D01*
X112090476Y-84782438D02*
X112138095Y-84830057D01*
X112138095Y-84830057D02*
X112185714Y-84925295D01*
X112185714Y-84925295D02*
X112185714Y-85020533D01*
X112185714Y-85020533D02*
X112138095Y-85163390D01*
X112138095Y-85163390D02*
X111566667Y-85734819D01*
X111566667Y-85734819D02*
X112185714Y-85734819D01*
X109666666Y-105444819D02*
X109666666Y-106159104D01*
X109666666Y-106159104D02*
X109619047Y-106301961D01*
X109619047Y-106301961D02*
X109523809Y-106397200D01*
X109523809Y-106397200D02*
X109380952Y-106444819D01*
X109380952Y-106444819D02*
X109285714Y-106444819D01*
X110666666Y-106444819D02*
X110095238Y-106444819D01*
X110380952Y-106444819D02*
X110380952Y-105444819D01*
X110380952Y-105444819D02*
X110285714Y-105587676D01*
X110285714Y-105587676D02*
X110190476Y-105682914D01*
X110190476Y-105682914D02*
X110095238Y-105730533D01*
X141334819Y-89238094D02*
X140334819Y-89238094D01*
X140334819Y-89238094D02*
X140334819Y-88999999D01*
X140334819Y-88999999D02*
X140382438Y-88857142D01*
X140382438Y-88857142D02*
X140477676Y-88761904D01*
X140477676Y-88761904D02*
X140572914Y-88714285D01*
X140572914Y-88714285D02*
X140763390Y-88666666D01*
X140763390Y-88666666D02*
X140906247Y-88666666D01*
X140906247Y-88666666D02*
X141096723Y-88714285D01*
X141096723Y-88714285D02*
X141191961Y-88761904D01*
X141191961Y-88761904D02*
X141287200Y-88857142D01*
X141287200Y-88857142D02*
X141334819Y-88999999D01*
X141334819Y-88999999D02*
X141334819Y-89238094D01*
X140334819Y-88333332D02*
X140334819Y-87714285D01*
X140334819Y-87714285D02*
X140715771Y-88047618D01*
X140715771Y-88047618D02*
X140715771Y-87904761D01*
X140715771Y-87904761D02*
X140763390Y-87809523D01*
X140763390Y-87809523D02*
X140811009Y-87761904D01*
X140811009Y-87761904D02*
X140906247Y-87714285D01*
X140906247Y-87714285D02*
X141144342Y-87714285D01*
X141144342Y-87714285D02*
X141239580Y-87761904D01*
X141239580Y-87761904D02*
X141287200Y-87809523D01*
X141287200Y-87809523D02*
X141334819Y-87904761D01*
X141334819Y-87904761D02*
X141334819Y-88190475D01*
X141334819Y-88190475D02*
X141287200Y-88285713D01*
X141287200Y-88285713D02*
X141239580Y-88333332D01*
X139861666Y-91944819D02*
X139861666Y-92659104D01*
X139861666Y-92659104D02*
X139814047Y-92801961D01*
X139814047Y-92801961D02*
X139718809Y-92897200D01*
X139718809Y-92897200D02*
X139575952Y-92944819D01*
X139575952Y-92944819D02*
X139480714Y-92944819D01*
X140290238Y-92040057D02*
X140337857Y-91992438D01*
X140337857Y-91992438D02*
X140433095Y-91944819D01*
X140433095Y-91944819D02*
X140671190Y-91944819D01*
X140671190Y-91944819D02*
X140766428Y-91992438D01*
X140766428Y-91992438D02*
X140814047Y-92040057D01*
X140814047Y-92040057D02*
X140861666Y-92135295D01*
X140861666Y-92135295D02*
X140861666Y-92230533D01*
X140861666Y-92230533D02*
X140814047Y-92373390D01*
X140814047Y-92373390D02*
X140242619Y-92944819D01*
X140242619Y-92944819D02*
X140861666Y-92944819D01*
X117961905Y-88854819D02*
X117961905Y-87854819D01*
X117961905Y-87854819D02*
X118200000Y-87854819D01*
X118200000Y-87854819D02*
X118342857Y-87902438D01*
X118342857Y-87902438D02*
X118438095Y-87997676D01*
X118438095Y-87997676D02*
X118485714Y-88092914D01*
X118485714Y-88092914D02*
X118533333Y-88283390D01*
X118533333Y-88283390D02*
X118533333Y-88426247D01*
X118533333Y-88426247D02*
X118485714Y-88616723D01*
X118485714Y-88616723D02*
X118438095Y-88711961D01*
X118438095Y-88711961D02*
X118342857Y-88807200D01*
X118342857Y-88807200D02*
X118200000Y-88854819D01*
X118200000Y-88854819D02*
X117961905Y-88854819D01*
X119390476Y-88188152D02*
X119390476Y-88854819D01*
X119152381Y-87807200D02*
X118914286Y-88521485D01*
X118914286Y-88521485D02*
X119533333Y-88521485D01*
X114261905Y-89354819D02*
X114261905Y-88354819D01*
X114261905Y-88354819D02*
X114500000Y-88354819D01*
X114500000Y-88354819D02*
X114642857Y-88402438D01*
X114642857Y-88402438D02*
X114738095Y-88497676D01*
X114738095Y-88497676D02*
X114785714Y-88592914D01*
X114785714Y-88592914D02*
X114833333Y-88783390D01*
X114833333Y-88783390D02*
X114833333Y-88926247D01*
X114833333Y-88926247D02*
X114785714Y-89116723D01*
X114785714Y-89116723D02*
X114738095Y-89211961D01*
X114738095Y-89211961D02*
X114642857Y-89307200D01*
X114642857Y-89307200D02*
X114500000Y-89354819D01*
X114500000Y-89354819D02*
X114261905Y-89354819D01*
X115785714Y-89354819D02*
X115214286Y-89354819D01*
X115500000Y-89354819D02*
X115500000Y-88354819D01*
X115500000Y-88354819D02*
X115404762Y-88497676D01*
X115404762Y-88497676D02*
X115309524Y-88592914D01*
X115309524Y-88592914D02*
X115214286Y-88640533D01*
X108538095Y-89554819D02*
X108538095Y-88554819D01*
X109109523Y-89554819D02*
X108680952Y-88983390D01*
X109109523Y-88554819D02*
X108538095Y-89126247D01*
X135904761Y-86954819D02*
X135571428Y-86478628D01*
X135333333Y-86954819D02*
X135333333Y-85954819D01*
X135333333Y-85954819D02*
X135714285Y-85954819D01*
X135714285Y-85954819D02*
X135809523Y-86002438D01*
X135809523Y-86002438D02*
X135857142Y-86050057D01*
X135857142Y-86050057D02*
X135904761Y-86145295D01*
X135904761Y-86145295D02*
X135904761Y-86288152D01*
X135904761Y-86288152D02*
X135857142Y-86383390D01*
X135857142Y-86383390D02*
X135809523Y-86431009D01*
X135809523Y-86431009D02*
X135714285Y-86478628D01*
X135714285Y-86478628D02*
X135333333Y-86478628D01*
X136190476Y-85954819D02*
X136523809Y-86954819D01*
X136523809Y-86954819D02*
X136857142Y-85954819D01*
X137714285Y-86954819D02*
X137142857Y-86954819D01*
X137428571Y-86954819D02*
X137428571Y-85954819D01*
X137428571Y-85954819D02*
X137333333Y-86097676D01*
X137333333Y-86097676D02*
X137238095Y-86192914D01*
X137238095Y-86192914D02*
X137142857Y-86240533D01*
X126183333Y-88359580D02*
X126135714Y-88407200D01*
X126135714Y-88407200D02*
X125992857Y-88454819D01*
X125992857Y-88454819D02*
X125897619Y-88454819D01*
X125897619Y-88454819D02*
X125754762Y-88407200D01*
X125754762Y-88407200D02*
X125659524Y-88311961D01*
X125659524Y-88311961D02*
X125611905Y-88216723D01*
X125611905Y-88216723D02*
X125564286Y-88026247D01*
X125564286Y-88026247D02*
X125564286Y-87883390D01*
X125564286Y-87883390D02*
X125611905Y-87692914D01*
X125611905Y-87692914D02*
X125659524Y-87597676D01*
X125659524Y-87597676D02*
X125754762Y-87502438D01*
X125754762Y-87502438D02*
X125897619Y-87454819D01*
X125897619Y-87454819D02*
X125992857Y-87454819D01*
X125992857Y-87454819D02*
X126135714Y-87502438D01*
X126135714Y-87502438D02*
X126183333Y-87550057D01*
X127135714Y-88454819D02*
X126564286Y-88454819D01*
X126850000Y-88454819D02*
X126850000Y-87454819D01*
X126850000Y-87454819D02*
X126754762Y-87597676D01*
X126754762Y-87597676D02*
X126659524Y-87692914D01*
X126659524Y-87692914D02*
X126564286Y-87740533D01*
X124238095Y-89454819D02*
X124238095Y-90264342D01*
X124238095Y-90264342D02*
X124285714Y-90359580D01*
X124285714Y-90359580D02*
X124333333Y-90407200D01*
X124333333Y-90407200D02*
X124428571Y-90454819D01*
X124428571Y-90454819D02*
X124619047Y-90454819D01*
X124619047Y-90454819D02*
X124714285Y-90407200D01*
X124714285Y-90407200D02*
X124761904Y-90359580D01*
X124761904Y-90359580D02*
X124809523Y-90264342D01*
X124809523Y-90264342D02*
X124809523Y-89454819D01*
X125809523Y-90454819D02*
X125238095Y-90454819D01*
X125523809Y-90454819D02*
X125523809Y-89454819D01*
X125523809Y-89454819D02*
X125428571Y-89597676D01*
X125428571Y-89597676D02*
X125333333Y-89692914D01*
X125333333Y-89692914D02*
X125238095Y-89740533D01*
X137634819Y-88666666D02*
X137158628Y-88999999D01*
X137634819Y-89238094D02*
X136634819Y-89238094D01*
X136634819Y-89238094D02*
X136634819Y-88857142D01*
X136634819Y-88857142D02*
X136682438Y-88761904D01*
X136682438Y-88761904D02*
X136730057Y-88714285D01*
X136730057Y-88714285D02*
X136825295Y-88666666D01*
X136825295Y-88666666D02*
X136968152Y-88666666D01*
X136968152Y-88666666D02*
X137063390Y-88714285D01*
X137063390Y-88714285D02*
X137111009Y-88761904D01*
X137111009Y-88761904D02*
X137158628Y-88857142D01*
X137158628Y-88857142D02*
X137158628Y-89238094D01*
X136634819Y-88333332D02*
X136634819Y-87714285D01*
X136634819Y-87714285D02*
X137015771Y-88047618D01*
X137015771Y-88047618D02*
X137015771Y-87904761D01*
X137015771Y-87904761D02*
X137063390Y-87809523D01*
X137063390Y-87809523D02*
X137111009Y-87761904D01*
X137111009Y-87761904D02*
X137206247Y-87714285D01*
X137206247Y-87714285D02*
X137444342Y-87714285D01*
X137444342Y-87714285D02*
X137539580Y-87761904D01*
X137539580Y-87761904D02*
X137587200Y-87809523D01*
X137587200Y-87809523D02*
X137634819Y-87904761D01*
X137634819Y-87904761D02*
X137634819Y-88190475D01*
X137634819Y-88190475D02*
X137587200Y-88285713D01*
X137587200Y-88285713D02*
X137539580Y-88333332D01*
X119133333Y-97759580D02*
X119085714Y-97807200D01*
X119085714Y-97807200D02*
X118942857Y-97854819D01*
X118942857Y-97854819D02*
X118847619Y-97854819D01*
X118847619Y-97854819D02*
X118704762Y-97807200D01*
X118704762Y-97807200D02*
X118609524Y-97711961D01*
X118609524Y-97711961D02*
X118561905Y-97616723D01*
X118561905Y-97616723D02*
X118514286Y-97426247D01*
X118514286Y-97426247D02*
X118514286Y-97283390D01*
X118514286Y-97283390D02*
X118561905Y-97092914D01*
X118561905Y-97092914D02*
X118609524Y-96997676D01*
X118609524Y-96997676D02*
X118704762Y-96902438D01*
X118704762Y-96902438D02*
X118847619Y-96854819D01*
X118847619Y-96854819D02*
X118942857Y-96854819D01*
X118942857Y-96854819D02*
X119085714Y-96902438D01*
X119085714Y-96902438D02*
X119133333Y-96950057D01*
X119514286Y-96950057D02*
X119561905Y-96902438D01*
X119561905Y-96902438D02*
X119657143Y-96854819D01*
X119657143Y-96854819D02*
X119895238Y-96854819D01*
X119895238Y-96854819D02*
X119990476Y-96902438D01*
X119990476Y-96902438D02*
X120038095Y-96950057D01*
X120038095Y-96950057D02*
X120085714Y-97045295D01*
X120085714Y-97045295D02*
X120085714Y-97140533D01*
X120085714Y-97140533D02*
X120038095Y-97283390D01*
X120038095Y-97283390D02*
X119466667Y-97854819D01*
X119466667Y-97854819D02*
X120085714Y-97854819D01*
D11*
%TO.C,R1*%
X125472936Y-101890000D02*
X126927064Y-101890000D01*
X125472936Y-103710000D02*
X126927064Y-103710000D01*
%TO.C,D2*%
X130030000Y-95425000D02*
X130030000Y-100865000D01*
X130030000Y-99845000D02*
X132970000Y-99845000D01*
X130030000Y-99965000D02*
X132970000Y-99965000D01*
X130030000Y-100085000D02*
X132970000Y-100085000D01*
X130030000Y-100865000D02*
X132970000Y-100865000D01*
X131500000Y-94405000D02*
X131500000Y-95425000D01*
X131500000Y-101885000D02*
X131500000Y-100865000D01*
X132970000Y-95425000D02*
X130030000Y-95425000D01*
X132970000Y-100865000D02*
X132970000Y-95425000D01*
%TO.C,R2*%
X110672936Y-86190000D02*
X112127064Y-86190000D01*
X110672936Y-88010000D02*
X112127064Y-88010000D01*
%TO.C,J1*%
X107625000Y-93605000D02*
X107625000Y-94105000D01*
X107865000Y-93845000D02*
X107865000Y-104125000D01*
X108365000Y-93605000D02*
X107625000Y-93605000D01*
X108425000Y-93845000D02*
X108425000Y-104125000D01*
X109925000Y-93845000D02*
X109925000Y-104125000D01*
X111286000Y-100491000D02*
X111251000Y-100456000D01*
X111502000Y-100298000D02*
X111456000Y-100251000D01*
X113594000Y-102800000D02*
X113548000Y-102753000D01*
X113800000Y-102595000D02*
X113764000Y-102560000D01*
X114826000Y-93845000D02*
X114826000Y-104125000D01*
X117786000Y-93845000D02*
X107865000Y-93845000D01*
X117786000Y-93845000D02*
X117786000Y-104125000D01*
X117786000Y-104125000D02*
X107865000Y-104125000D01*
X110844747Y-96473805D02*
G75*
G02*
X110990000Y-95761000I1680254J28806D01*
G01*
X110990244Y-97128318D02*
G75*
G02*
X110845000Y-96445000I1534756J683318D01*
G01*
X111841958Y-94909573D02*
G75*
G02*
X113209000Y-94910000I683041J-1535420D01*
G01*
X113208042Y-97980427D02*
G75*
G02*
X111841000Y-97980000I-683042J1535427D01*
G01*
X114060427Y-95761958D02*
G75*
G02*
X114060000Y-97129000I-1535420J-683041D01*
G01*
X114205000Y-101525000D02*
G75*
G02*
X110845000Y-101525000I-1680000J0D01*
G01*
X110845000Y-101525000D02*
G75*
G02*
X114205000Y-101525000I1680000J0D01*
G01*
%TO.C,D3*%
X141565000Y-86900000D02*
X141565000Y-90785000D01*
X141565000Y-90785000D02*
X143835000Y-90785000D01*
X143835000Y-90785000D02*
X143835000Y-86900000D01*
%TO.C,J2*%
X135239000Y-93855000D02*
X145160000Y-93855000D01*
X135239000Y-104135000D02*
X135239000Y-93855000D01*
X135239000Y-104135000D02*
X145160000Y-104135000D01*
X138199000Y-104135000D02*
X138199000Y-93855000D01*
X139225000Y-95385000D02*
X139261000Y-95420000D01*
X139431000Y-95180000D02*
X139477000Y-95227000D01*
X141523000Y-97682000D02*
X141569000Y-97729000D01*
X141739000Y-97489000D02*
X141774000Y-97524000D01*
X143100000Y-104135000D02*
X143100000Y-93855000D01*
X144600000Y-104135000D02*
X144600000Y-93855000D01*
X144660000Y-104375000D02*
X145400000Y-104375000D01*
X145160000Y-104135000D02*
X145160000Y-93855000D01*
X145400000Y-104375000D02*
X145400000Y-103875000D01*
X138964573Y-102218042D02*
G75*
G02*
X138965000Y-100851000I1535420J683041D01*
G01*
X139816958Y-99999573D02*
G75*
G02*
X141184000Y-100000000I683042J-1535427D01*
G01*
X141183042Y-103070427D02*
G75*
G02*
X139816000Y-103070000I-683041J1535420D01*
G01*
X142034756Y-100851682D02*
G75*
G02*
X142180000Y-101535000I-1534756J-683318D01*
G01*
X142180253Y-101506195D02*
G75*
G02*
X142035000Y-102219000I-1680254J-28806D01*
G01*
X142180000Y-96455000D02*
G75*
G02*
X138820000Y-96455000I-1680000J0D01*
G01*
X138820000Y-96455000D02*
G75*
G02*
X142180000Y-96455000I1680000J0D01*
G01*
%TO.C,D4*%
X115565000Y-85740000D02*
X115565000Y-87660000D01*
X115565000Y-87660000D02*
X118425000Y-87660000D01*
X118425000Y-85740000D02*
X115565000Y-85740000D01*
%TO.C,D1*%
X110140000Y-91200000D02*
X111160000Y-91200000D01*
X111160000Y-89730000D02*
X111160000Y-92670000D01*
X111160000Y-92670000D02*
X116600000Y-92670000D01*
X111940000Y-89730000D02*
X111940000Y-92670000D01*
X112060000Y-89730000D02*
X112060000Y-92670000D01*
X112180000Y-89730000D02*
X112180000Y-92670000D01*
X116600000Y-89730000D02*
X111160000Y-89730000D01*
X116600000Y-92670000D02*
X116600000Y-89730000D01*
X117620000Y-91200000D02*
X116600000Y-91200000D01*
%TO.C,RV1*%
X127510000Y-85635000D02*
X127510000Y-86280000D01*
X127510000Y-85635000D02*
X134460000Y-85635000D01*
X127510000Y-87270000D02*
X127510000Y-90375000D01*
X127510000Y-90375000D02*
X134460000Y-90375000D01*
X134460000Y-85635000D02*
X134460000Y-86280000D01*
X134460000Y-87270000D02*
X134460000Y-90375000D01*
%TO.C,C1*%
X124970000Y-88000000D02*
G75*
G02*
X120730000Y-88000000I-2120000J0D01*
G01*
X120730000Y-88000000D02*
G75*
G02*
X124970000Y-88000000I2120000J0D01*
G01*
%TO.C,U1*%
X123150000Y-91090000D02*
X126910000Y-91090000D01*
X123150000Y-97910000D02*
X126910000Y-97910000D01*
X126910000Y-91090000D02*
X126910000Y-92350000D01*
X126910000Y-97910000D02*
X126910000Y-96650000D01*
X121870000Y-91190000D02*
X121630000Y-90860000D01*
X122110000Y-90860000D01*
X121870000Y-91190000D01*
G36*
X121870000Y-91190000D02*
G01*
X121630000Y-90860000D01*
X122110000Y-90860000D01*
X121870000Y-91190000D01*
G37*
%TO.C,R3*%
X138090000Y-89227064D02*
X138090000Y-87772936D01*
X139910000Y-89227064D02*
X139910000Y-87772936D01*
%TO.C,C2*%
X123620000Y-101000000D02*
G75*
G02*
X118380000Y-101000000I-2620000J0D01*
G01*
X118380000Y-101000000D02*
G75*
G02*
X123620000Y-101000000I2620000J0D01*
G01*
%TD*%
M02*
