%TF.GenerationSoftware,KiCad,Pcbnew,8.0.2*%
%TF.CreationDate,2025-12-30T14:28:12-05:00*%
%TF.ProjectId,voltage regulator,766f6c74-6167-4652-9072-6567756c6174,rev?*%
%TF.SameCoordinates,Original*%
%TF.FileFunction,Copper,L2,Bot*%
%TF.FilePolarity,Positive*%
%FSLAX46Y46*%
G04 Gerber Fmt 4.6, Leading zero omitted, Abs format (unit mm)*
G04 Created by KiCad (PCBNEW 8.0.2) date 2025-12-30 14:28:12*
%MOMM*%
%LPD*%
G01*
G04 APERTURE LIST*
%TA.AperFunction,ComponentPad*%
%ADD10R,2.200000X2.200000*%
%TD*%
%TA.AperFunction,ComponentPad*%
%ADD11O,2.200000X2.200000*%
%TD*%
%TA.AperFunction,ComponentPad*%
%ADD12R,2.600000X2.600000*%
%TD*%
%TA.AperFunction,ComponentPad*%
%ADD13C,2.600000*%
%TD*%
%TA.AperFunction,ComponentPad*%
%ADD14C,1.440000*%
%TD*%
%TA.AperFunction,ComponentPad*%
%ADD15C,1.200000*%
%TD*%
%TA.AperFunction,ComponentPad*%
%ADD16C,1.600000*%
%TD*%
%TA.AperFunction,ViaPad*%
%ADD17C,0.600000*%
%TD*%
%TA.AperFunction,Conductor*%
%ADD18C,0.200000*%
%TD*%
G04 APERTURE END LIST*
D10*
%TO.P,D2,1,K*%
%TO.N,+1.2V to +32V*%
X131500000Y-103225000D03*
D11*
%TO.P,D2,2,A*%
%TO.N,Net-(D2-A)*%
X131500000Y-93065000D03*
%TD*%
D12*
%TO.P,J1,1,Pin_1*%
%TO.N,+1.5V to +35V*%
X112525000Y-96445000D03*
D13*
%TO.P,J1,2,Pin_2*%
%TO.N,GND*%
X112525000Y-101525000D03*
%TD*%
D12*
%TO.P,J2,1,Pin_1*%
%TO.N,+1.2V to +32V*%
X140500000Y-101535000D03*
D13*
%TO.P,J2,2,Pin_2*%
%TO.N,GND*%
X140500000Y-96455000D03*
%TD*%
D10*
%TO.P,D1,1,K*%
%TO.N,+1.5V to +35V*%
X108800000Y-91200000D03*
D11*
%TO.P,D1,2,A*%
%TO.N,+1.2V to +32V*%
X118960000Y-91200000D03*
%TD*%
D14*
%TO.P,RV1,1,1*%
%TO.N,Net-(D2-A)*%
X133525000Y-86775000D03*
%TO.P,RV1,2,2*%
%TO.N,GND*%
X130985000Y-89315000D03*
%TO.P,RV1,3,3*%
X128445000Y-86775000D03*
%TD*%
D15*
%TO.P,C1,1*%
%TO.N,Net-(D2-A)*%
X123600000Y-88000000D03*
%TO.P,C1,2*%
%TO.N,GND*%
X122100000Y-88000000D03*
%TD*%
D16*
%TO.P,C2,1*%
%TO.N,+1.2V to +32V*%
X121000000Y-100000000D03*
%TO.P,C2,2*%
%TO.N,GND*%
X121000000Y-102000000D03*
%TD*%
D17*
%TO.N,Net-(D2-A)*%
X128000000Y-100700000D03*
%TO.N,GND*%
X126242856Y-93800000D03*
X124671428Y-96700000D03*
X126214284Y-95000000D03*
X126242856Y-92100000D03*
X136500000Y-87900000D03*
X125442856Y-95800000D03*
X132700000Y-88600000D03*
X123928572Y-92900000D03*
X123900000Y-96700000D03*
X125471428Y-92100000D03*
X125442856Y-95000000D03*
X125471428Y-92900000D03*
X126242856Y-92900000D03*
X124700000Y-93800000D03*
X123900000Y-95800000D03*
X124671428Y-95000000D03*
X123928572Y-92100000D03*
X124671428Y-95800000D03*
X123928572Y-93800000D03*
X126214284Y-95800000D03*
X124700000Y-92900000D03*
X125471428Y-93800000D03*
X123900000Y-95000000D03*
X126214284Y-96700000D03*
X125442856Y-96700000D03*
X124700000Y-92100000D03*
%TD*%
D18*
%TO.N,Net-(D2-A)*%
X131500000Y-97200000D02*
X131500000Y-93065000D01*
X128000000Y-100700000D02*
X131500000Y-97200000D01*
%TO.N,GND*%
X132700000Y-88600000D02*
X132900000Y-88400000D01*
X132900000Y-88400000D02*
X136000000Y-88400000D01*
X136000000Y-88400000D02*
X136500000Y-87900000D01*
%TD*%
%TA.AperFunction,Conductor*%
%TO.N,GND*%
G36*
X144967539Y-85020185D02*
G01*
X145013294Y-85072989D01*
X145024500Y-85124500D01*
X145024500Y-104275500D01*
X145004815Y-104342539D01*
X144952011Y-104388294D01*
X144900500Y-104399500D01*
X133224500Y-104399500D01*
X133157461Y-104379815D01*
X133111706Y-104327011D01*
X133100500Y-104275500D01*
X133100499Y-102077129D01*
X133100498Y-102077123D01*
X133100497Y-102077116D01*
X133094091Y-102017517D01*
X133043796Y-101882669D01*
X133043795Y-101882668D01*
X133043793Y-101882664D01*
X132957547Y-101767455D01*
X132957544Y-101767452D01*
X132842335Y-101681206D01*
X132842328Y-101681202D01*
X132707482Y-101630908D01*
X132707483Y-101630908D01*
X132647883Y-101624501D01*
X132647881Y-101624500D01*
X132647873Y-101624500D01*
X132647864Y-101624500D01*
X130352129Y-101624500D01*
X130352123Y-101624501D01*
X130292516Y-101630908D01*
X130157671Y-101681202D01*
X130157664Y-101681206D01*
X130042455Y-101767452D01*
X130042452Y-101767455D01*
X129956206Y-101882664D01*
X129956202Y-101882671D01*
X129905908Y-102017517D01*
X129899501Y-102077116D01*
X129899500Y-102077127D01*
X129899500Y-103192547D01*
X129899501Y-104275500D01*
X129879816Y-104342539D01*
X129827013Y-104388294D01*
X129775501Y-104399500D01*
X107249500Y-104399500D01*
X107182461Y-104379815D01*
X107136706Y-104327011D01*
X107125500Y-104275500D01*
X107125500Y-99999998D01*
X119694532Y-99999998D01*
X119694532Y-100000001D01*
X119714364Y-100226686D01*
X119714366Y-100226697D01*
X119773258Y-100446488D01*
X119773261Y-100446497D01*
X119869431Y-100652732D01*
X119869432Y-100652734D01*
X119999954Y-100839141D01*
X120160858Y-101000045D01*
X120160861Y-101000047D01*
X120347266Y-101130568D01*
X120553504Y-101226739D01*
X120773308Y-101285635D01*
X120935230Y-101299801D01*
X120999998Y-101305468D01*
X121000000Y-101305468D01*
X121000002Y-101305468D01*
X121056673Y-101300509D01*
X121226692Y-101285635D01*
X121446496Y-101226739D01*
X121652734Y-101130568D01*
X121839139Y-101000047D01*
X122000047Y-100839139D01*
X122097475Y-100699996D01*
X127194435Y-100699996D01*
X127194435Y-100700003D01*
X127214630Y-100879249D01*
X127214631Y-100879254D01*
X127274211Y-101049523D01*
X127370184Y-101202262D01*
X127497738Y-101329816D01*
X127650478Y-101425789D01*
X127820745Y-101485368D01*
X127820750Y-101485369D01*
X127999996Y-101505565D01*
X128000000Y-101505565D01*
X128000004Y-101505565D01*
X128179249Y-101485369D01*
X128179252Y-101485368D01*
X128179255Y-101485368D01*
X128349522Y-101425789D01*
X128502262Y-101329816D01*
X128629816Y-101202262D01*
X128725789Y-101049522D01*
X128785368Y-100879255D01*
X128795161Y-100792329D01*
X128822226Y-100727918D01*
X128830690Y-100718543D01*
X129362098Y-100187135D01*
X138699500Y-100187135D01*
X138699500Y-102882870D01*
X138699501Y-102882876D01*
X138705908Y-102942483D01*
X138756202Y-103077328D01*
X138756206Y-103077335D01*
X138842452Y-103192544D01*
X138842455Y-103192547D01*
X138957664Y-103278793D01*
X138957671Y-103278797D01*
X139092517Y-103329091D01*
X139092516Y-103329091D01*
X139099444Y-103329835D01*
X139152127Y-103335500D01*
X141847872Y-103335499D01*
X141907483Y-103329091D01*
X142042331Y-103278796D01*
X142157546Y-103192546D01*
X142243796Y-103077331D01*
X142294091Y-102942483D01*
X142300500Y-102882873D01*
X142300499Y-100187128D01*
X142294091Y-100127517D01*
X142272707Y-100070184D01*
X142243797Y-99992671D01*
X142243793Y-99992664D01*
X142157547Y-99877455D01*
X142157544Y-99877452D01*
X142042335Y-99791206D01*
X142042328Y-99791202D01*
X141907482Y-99740908D01*
X141907483Y-99740908D01*
X141847883Y-99734501D01*
X141847881Y-99734500D01*
X141847873Y-99734500D01*
X141847864Y-99734500D01*
X139152129Y-99734500D01*
X139152123Y-99734501D01*
X139092516Y-99740908D01*
X138957671Y-99791202D01*
X138957664Y-99791206D01*
X138842455Y-99877452D01*
X138842452Y-99877455D01*
X138756206Y-99992664D01*
X138756202Y-99992671D01*
X138705908Y-100127517D01*
X138699501Y-100187116D01*
X138699501Y-100187123D01*
X138699500Y-100187135D01*
X129362098Y-100187135D01*
X131858506Y-97690728D01*
X131858511Y-97690724D01*
X131868714Y-97680520D01*
X131868716Y-97680520D01*
X131980520Y-97568716D01*
X132059577Y-97431784D01*
X132100500Y-97279057D01*
X132100500Y-94631487D01*
X132120185Y-94564448D01*
X132172989Y-94518693D01*
X132177002Y-94516945D01*
X132228859Y-94495466D01*
X132443659Y-94363836D01*
X132635224Y-94200224D01*
X132798836Y-94008659D01*
X132930466Y-93793859D01*
X133026873Y-93561111D01*
X133085683Y-93316148D01*
X133105449Y-93065000D01*
X133085683Y-92813852D01*
X133026873Y-92568889D01*
X133015871Y-92542328D01*
X132930466Y-92336140D01*
X132798839Y-92121346D01*
X132798838Y-92121343D01*
X132761875Y-92078066D01*
X132635224Y-91929776D01*
X132508571Y-91821604D01*
X132443656Y-91766161D01*
X132443653Y-91766160D01*
X132228859Y-91634533D01*
X131996110Y-91538126D01*
X131751151Y-91479317D01*
X131500000Y-91459551D01*
X131248848Y-91479317D01*
X131003889Y-91538126D01*
X130771140Y-91634533D01*
X130556346Y-91766160D01*
X130556343Y-91766161D01*
X130364776Y-91929776D01*
X130201161Y-92121343D01*
X130201160Y-92121346D01*
X130069533Y-92336140D01*
X129973126Y-92568889D01*
X129914317Y-92813848D01*
X129894551Y-93065000D01*
X129914317Y-93316151D01*
X129973126Y-93561110D01*
X130069533Y-93793859D01*
X130201160Y-94008653D01*
X130201161Y-94008656D01*
X130201164Y-94008659D01*
X130364776Y-94200224D01*
X130513066Y-94326875D01*
X130556343Y-94363838D01*
X130556345Y-94363838D01*
X130771141Y-94495466D01*
X130822953Y-94516927D01*
X130877355Y-94560765D01*
X130899421Y-94627059D01*
X130899500Y-94631487D01*
X130899500Y-96899902D01*
X130879815Y-96966941D01*
X130863181Y-96987583D01*
X127981465Y-99869298D01*
X127920142Y-99902783D01*
X127907668Y-99904837D01*
X127820750Y-99914630D01*
X127650478Y-99974210D01*
X127497737Y-100070184D01*
X127370184Y-100197737D01*
X127274211Y-100350476D01*
X127214631Y-100520745D01*
X127214630Y-100520750D01*
X127194435Y-100699996D01*
X122097475Y-100699996D01*
X122130568Y-100652734D01*
X122226739Y-100446496D01*
X122285635Y-100226692D01*
X122305468Y-100000000D01*
X122285635Y-99773308D01*
X122226739Y-99553504D01*
X122130568Y-99347266D01*
X122000047Y-99160861D01*
X122000045Y-99160858D01*
X121839141Y-98999954D01*
X121652734Y-98869432D01*
X121652732Y-98869431D01*
X121446497Y-98773261D01*
X121446488Y-98773258D01*
X121226697Y-98714366D01*
X121226693Y-98714365D01*
X121226692Y-98714365D01*
X121226691Y-98714364D01*
X121226686Y-98714364D01*
X121000002Y-98694532D01*
X120999998Y-98694532D01*
X120773313Y-98714364D01*
X120773302Y-98714366D01*
X120553511Y-98773258D01*
X120553502Y-98773261D01*
X120347267Y-98869431D01*
X120347265Y-98869432D01*
X120160858Y-98999954D01*
X119999954Y-99160858D01*
X119869432Y-99347265D01*
X119869431Y-99347267D01*
X119773261Y-99553502D01*
X119773258Y-99553511D01*
X119714366Y-99773302D01*
X119714364Y-99773313D01*
X119694532Y-99999998D01*
X107125500Y-99999998D01*
X107125500Y-95097135D01*
X110724500Y-95097135D01*
X110724500Y-97792870D01*
X110724501Y-97792876D01*
X110730908Y-97852483D01*
X110781202Y-97987328D01*
X110781206Y-97987335D01*
X110867452Y-98102544D01*
X110867455Y-98102547D01*
X110982664Y-98188793D01*
X110982671Y-98188797D01*
X111117517Y-98239091D01*
X111117516Y-98239091D01*
X111124444Y-98239835D01*
X111177127Y-98245500D01*
X113872872Y-98245499D01*
X113932483Y-98239091D01*
X114067331Y-98188796D01*
X114182546Y-98102546D01*
X114268796Y-97987331D01*
X114319091Y-97852483D01*
X114325500Y-97792873D01*
X114325499Y-95097128D01*
X114319091Y-95037517D01*
X114268796Y-94902669D01*
X114268795Y-94902668D01*
X114268793Y-94902664D01*
X114182547Y-94787455D01*
X114182544Y-94787452D01*
X114067335Y-94701206D01*
X114067328Y-94701202D01*
X113932482Y-94650908D01*
X113932483Y-94650908D01*
X113872883Y-94644501D01*
X113872881Y-94644500D01*
X113872873Y-94644500D01*
X113872864Y-94644500D01*
X111177129Y-94644500D01*
X111177123Y-94644501D01*
X111117516Y-94650908D01*
X110982671Y-94701202D01*
X110982664Y-94701206D01*
X110867455Y-94787452D01*
X110867452Y-94787455D01*
X110781206Y-94902664D01*
X110781202Y-94902671D01*
X110730908Y-95037517D01*
X110724501Y-95097116D01*
X110724501Y-95097123D01*
X110724500Y-95097135D01*
X107125500Y-95097135D01*
X107125500Y-92739954D01*
X107145185Y-92672915D01*
X107197989Y-92627160D01*
X107267147Y-92617216D01*
X107330703Y-92646241D01*
X107337181Y-92652273D01*
X107342455Y-92657547D01*
X107457664Y-92743793D01*
X107457671Y-92743797D01*
X107592517Y-92794091D01*
X107592516Y-92794091D01*
X107599444Y-92794835D01*
X107652127Y-92800500D01*
X109947872Y-92800499D01*
X110007483Y-92794091D01*
X110142331Y-92743796D01*
X110257546Y-92657546D01*
X110343796Y-92542331D01*
X110394091Y-92407483D01*
X110400500Y-92347873D01*
X110400499Y-91200000D01*
X117354551Y-91200000D01*
X117374317Y-91451151D01*
X117433126Y-91696110D01*
X117529533Y-91928859D01*
X117661160Y-92143653D01*
X117661161Y-92143656D01*
X117661164Y-92143659D01*
X117824776Y-92335224D01*
X117973066Y-92461875D01*
X118016343Y-92498838D01*
X118016346Y-92498839D01*
X118231140Y-92630466D01*
X118333622Y-92672915D01*
X118463889Y-92726873D01*
X118708852Y-92785683D01*
X118960000Y-92805449D01*
X119211148Y-92785683D01*
X119456111Y-92726873D01*
X119688859Y-92630466D01*
X119903659Y-92498836D01*
X120095224Y-92335224D01*
X120258836Y-92143659D01*
X120390466Y-91928859D01*
X120486873Y-91696111D01*
X120545683Y-91451148D01*
X120565449Y-91200000D01*
X120545683Y-90948852D01*
X120486873Y-90703889D01*
X120390466Y-90471141D01*
X120390466Y-90471140D01*
X120258839Y-90256346D01*
X120258838Y-90256343D01*
X120221875Y-90213066D01*
X120095224Y-90064776D01*
X119968571Y-89956604D01*
X119903656Y-89901161D01*
X119903653Y-89901160D01*
X119688859Y-89769533D01*
X119456110Y-89673126D01*
X119211151Y-89614317D01*
X118960000Y-89594551D01*
X118708848Y-89614317D01*
X118463889Y-89673126D01*
X118231140Y-89769533D01*
X118016346Y-89901160D01*
X118016343Y-89901161D01*
X117824776Y-90064776D01*
X117661161Y-90256343D01*
X117661160Y-90256346D01*
X117529533Y-90471140D01*
X117433126Y-90703889D01*
X117374317Y-90948848D01*
X117354551Y-91200000D01*
X110400499Y-91200000D01*
X110400499Y-90052128D01*
X110394091Y-89992517D01*
X110360017Y-89901161D01*
X110343797Y-89857671D01*
X110343793Y-89857664D01*
X110257547Y-89742455D01*
X110257544Y-89742452D01*
X110142335Y-89656206D01*
X110142328Y-89656202D01*
X110007482Y-89605908D01*
X110007483Y-89605908D01*
X109947883Y-89599501D01*
X109947881Y-89599500D01*
X109947873Y-89599500D01*
X109947864Y-89599500D01*
X107652129Y-89599500D01*
X107652123Y-89599501D01*
X107592516Y-89605908D01*
X107457671Y-89656202D01*
X107457664Y-89656206D01*
X107342455Y-89742452D01*
X107337181Y-89747727D01*
X107275858Y-89781212D01*
X107206166Y-89776228D01*
X107150233Y-89734356D01*
X107125816Y-89668892D01*
X107125500Y-89660046D01*
X107125500Y-87999999D01*
X122494785Y-87999999D01*
X122494785Y-88000000D01*
X122513602Y-88203082D01*
X122569417Y-88399247D01*
X122569422Y-88399260D01*
X122660327Y-88581821D01*
X122783237Y-88744581D01*
X122933958Y-88881980D01*
X122933960Y-88881982D01*
X123033141Y-88943392D01*
X123107363Y-88989348D01*
X123297544Y-89063024D01*
X123498024Y-89100500D01*
X123498026Y-89100500D01*
X123701974Y-89100500D01*
X123701976Y-89100500D01*
X123902456Y-89063024D01*
X124092637Y-88989348D01*
X124266041Y-88881981D01*
X124416764Y-88744579D01*
X124539673Y-88581821D01*
X124630582Y-88399250D01*
X124686397Y-88203083D01*
X124705215Y-88000000D01*
X124686397Y-87796917D01*
X124630582Y-87600750D01*
X124611546Y-87562521D01*
X124586272Y-87511764D01*
X124539673Y-87418179D01*
X124416764Y-87255421D01*
X124416762Y-87255418D01*
X124266041Y-87118019D01*
X124266039Y-87118017D01*
X124092642Y-87010655D01*
X124092635Y-87010651D01*
X123997546Y-86973814D01*
X123902456Y-86936976D01*
X123701976Y-86899500D01*
X123498024Y-86899500D01*
X123297544Y-86936976D01*
X123297541Y-86936976D01*
X123297541Y-86936977D01*
X123107364Y-87010651D01*
X123107357Y-87010655D01*
X122933960Y-87118017D01*
X122933958Y-87118019D01*
X122783237Y-87255418D01*
X122660327Y-87418178D01*
X122569422Y-87600739D01*
X122569417Y-87600752D01*
X122513602Y-87796917D01*
X122494785Y-87999999D01*
X107125500Y-87999999D01*
X107125500Y-86774998D01*
X132299838Y-86774998D01*
X132299838Y-86775001D01*
X132318450Y-86987741D01*
X132318452Y-86987752D01*
X132373721Y-87194022D01*
X132373723Y-87194026D01*
X132373724Y-87194030D01*
X132402350Y-87255418D01*
X132463977Y-87387578D01*
X132586472Y-87562521D01*
X132737478Y-87713527D01*
X132737481Y-87713529D01*
X132912419Y-87836021D01*
X132912421Y-87836022D01*
X132912420Y-87836022D01*
X132976936Y-87866106D01*
X133105970Y-87926276D01*
X133312253Y-87981549D01*
X133464215Y-87994844D01*
X133524998Y-88000162D01*
X133525000Y-88000162D01*
X133525002Y-88000162D01*
X133578186Y-87995508D01*
X133737747Y-87981549D01*
X133944030Y-87926276D01*
X134137581Y-87836021D01*
X134312519Y-87713529D01*
X134463529Y-87562519D01*
X134586021Y-87387581D01*
X134676276Y-87194030D01*
X134731549Y-86987747D01*
X134750162Y-86775000D01*
X134731549Y-86562253D01*
X134676276Y-86355970D01*
X134586021Y-86162419D01*
X134463529Y-85987481D01*
X134463527Y-85987478D01*
X134312521Y-85836472D01*
X134137578Y-85713977D01*
X134137579Y-85713977D01*
X134008547Y-85653809D01*
X133944030Y-85623724D01*
X133944026Y-85623723D01*
X133944022Y-85623721D01*
X133737752Y-85568452D01*
X133737748Y-85568451D01*
X133737747Y-85568451D01*
X133737746Y-85568450D01*
X133737741Y-85568450D01*
X133525002Y-85549838D01*
X133524998Y-85549838D01*
X133312258Y-85568450D01*
X133312247Y-85568452D01*
X133105977Y-85623721D01*
X133105968Y-85623725D01*
X132912421Y-85713977D01*
X132737478Y-85836472D01*
X132586472Y-85987478D01*
X132463977Y-86162421D01*
X132373725Y-86355968D01*
X132373721Y-86355977D01*
X132318452Y-86562247D01*
X132318450Y-86562258D01*
X132299838Y-86774998D01*
X107125500Y-86774998D01*
X107125500Y-85124500D01*
X107145185Y-85057461D01*
X107197989Y-85011706D01*
X107249500Y-85000500D01*
X144900500Y-85000500D01*
X144967539Y-85020185D01*
G37*
%TD.AperFunction*%
%TD*%
M02*
