%TF.GenerationSoftware,KiCad,Pcbnew,8.0.2*%
%TF.CreationDate,2025-12-30T14:28:23-05:00*%
%TF.ProjectId,voltage regulator,766f6c74-6167-4652-9072-6567756c6174,rev?*%
%TF.SameCoordinates,Original*%
%TF.FileFunction,Drillmap*%
%TF.FilePolarity,Positive*%
%FSLAX45Y45*%
G04 Gerber Fmt 4.5, Leading zero omitted, Abs format (unit mm)*
G04 Created by KiCad (PCBNEW 8.0.2) date 2025-12-30 14:28:23*
%MOMM*%
%LPD*%
G01*
G04 APERTURE LIST*
%ADD10C,0.200000*%
G04 APERTURE END LIST*
D10*
X14502500Y-10490000D02*
X10712500Y-10490000D01*
X10662500Y-10440000D02*
X10662500Y-8500000D01*
X14552500Y-8500000D02*
X14552500Y-10440000D01*
X10712500Y-8450000D02*
X14502500Y-8450000D01*
X10712500Y-10490000D02*
G75*
G02*
X10662500Y-10440000I0J50000D01*
G01*
X14552500Y-10440000D02*
G75*
G02*
X14502500Y-10490000I-50000J0D01*
G01*
X10662500Y-8500000D02*
G75*
G02*
X10712500Y-8450000I50000J0D01*
G01*
X14502500Y-8450000D02*
G75*
G02*
X14552500Y-8500000I0J-50000D01*
G01*
X10913277Y-10811484D02*
X10913277Y-10611484D01*
X10913277Y-10611484D02*
X10960896Y-10611484D01*
X10960896Y-10611484D02*
X10989467Y-10621008D01*
X10989467Y-10621008D02*
X11008515Y-10640055D01*
X11008515Y-10640055D02*
X11018039Y-10659103D01*
X11018039Y-10659103D02*
X11027563Y-10697198D01*
X11027563Y-10697198D02*
X11027563Y-10725770D01*
X11027563Y-10725770D02*
X11018039Y-10763865D01*
X11018039Y-10763865D02*
X11008515Y-10782912D01*
X11008515Y-10782912D02*
X10989467Y-10801960D01*
X10989467Y-10801960D02*
X10960896Y-10811484D01*
X10960896Y-10811484D02*
X10913277Y-10811484D01*
X11113277Y-10811484D02*
X11113277Y-10678150D01*
X11113277Y-10716246D02*
X11122801Y-10697198D01*
X11122801Y-10697198D02*
X11132324Y-10687674D01*
X11132324Y-10687674D02*
X11151372Y-10678150D01*
X11151372Y-10678150D02*
X11170420Y-10678150D01*
X11237086Y-10811484D02*
X11237086Y-10678150D01*
X11237086Y-10611484D02*
X11227562Y-10621008D01*
X11227562Y-10621008D02*
X11237086Y-10630531D01*
X11237086Y-10630531D02*
X11246610Y-10621008D01*
X11246610Y-10621008D02*
X11237086Y-10611484D01*
X11237086Y-10611484D02*
X11237086Y-10630531D01*
X11360896Y-10811484D02*
X11341848Y-10801960D01*
X11341848Y-10801960D02*
X11332324Y-10782912D01*
X11332324Y-10782912D02*
X11332324Y-10611484D01*
X11465658Y-10811484D02*
X11446610Y-10801960D01*
X11446610Y-10801960D02*
X11437086Y-10782912D01*
X11437086Y-10782912D02*
X11437086Y-10611484D01*
X11694229Y-10811484D02*
X11694229Y-10611484D01*
X11694229Y-10611484D02*
X11760896Y-10754341D01*
X11760896Y-10754341D02*
X11827562Y-10611484D01*
X11827562Y-10611484D02*
X11827562Y-10811484D01*
X12008515Y-10811484D02*
X12008515Y-10706722D01*
X12008515Y-10706722D02*
X11998991Y-10687674D01*
X11998991Y-10687674D02*
X11979943Y-10678150D01*
X11979943Y-10678150D02*
X11941848Y-10678150D01*
X11941848Y-10678150D02*
X11922801Y-10687674D01*
X12008515Y-10801960D02*
X11989467Y-10811484D01*
X11989467Y-10811484D02*
X11941848Y-10811484D01*
X11941848Y-10811484D02*
X11922801Y-10801960D01*
X11922801Y-10801960D02*
X11913277Y-10782912D01*
X11913277Y-10782912D02*
X11913277Y-10763865D01*
X11913277Y-10763865D02*
X11922801Y-10744817D01*
X11922801Y-10744817D02*
X11941848Y-10735293D01*
X11941848Y-10735293D02*
X11989467Y-10735293D01*
X11989467Y-10735293D02*
X12008515Y-10725770D01*
X12103753Y-10678150D02*
X12103753Y-10878150D01*
X12103753Y-10687674D02*
X12122801Y-10678150D01*
X12122801Y-10678150D02*
X12160896Y-10678150D01*
X12160896Y-10678150D02*
X12179943Y-10687674D01*
X12179943Y-10687674D02*
X12189467Y-10697198D01*
X12189467Y-10697198D02*
X12198991Y-10716246D01*
X12198991Y-10716246D02*
X12198991Y-10773389D01*
X12198991Y-10773389D02*
X12189467Y-10792436D01*
X12189467Y-10792436D02*
X12179943Y-10801960D01*
X12179943Y-10801960D02*
X12160896Y-10811484D01*
X12160896Y-10811484D02*
X12122801Y-10811484D01*
X12122801Y-10811484D02*
X12103753Y-10801960D01*
X12284705Y-10792436D02*
X12294229Y-10801960D01*
X12294229Y-10801960D02*
X12284705Y-10811484D01*
X12284705Y-10811484D02*
X12275182Y-10801960D01*
X12275182Y-10801960D02*
X12284705Y-10792436D01*
X12284705Y-10792436D02*
X12284705Y-10811484D01*
X12284705Y-10687674D02*
X12294229Y-10697198D01*
X12294229Y-10697198D02*
X12284705Y-10706722D01*
X12284705Y-10706722D02*
X12275182Y-10697198D01*
X12275182Y-10697198D02*
X12284705Y-10687674D01*
X12284705Y-10687674D02*
X12284705Y-10706722D01*
M02*
