%TF.GenerationSoftware,KiCad,Pcbnew,8.0.2*%
%TF.CreationDate,2025-12-30T14:28:23-05:00*%
%TF.ProjectId,voltage regulator,766f6c74-6167-4652-9072-6567756c6174,rev?*%
%TF.SameCoordinates,Original*%
%TF.FileFunction,Drillmap*%
%TF.FilePolarity,Positive*%
%FSLAX45Y45*%
G04 Gerber Fmt 4.5, Leading zero omitted, Abs format (unit mm)*
G04 Created by KiCad (PCBNEW 8.0.2) date 2025-12-30 14:28:23*
%MOMM*%
%LPD*%
G01*
G04 APERTURE LIST*
%ADD10C,0.200000*%
%ADD11C,0.100000*%
%ADD12C,0.110000*%
%ADD13C,0.130000*%
G04 APERTURE END LIST*
D10*
X14502500Y-10490000D02*
X10712500Y-10490000D01*
X10662500Y-10440000D02*
X10662500Y-8500000D01*
X14552500Y-8500000D02*
X14552500Y-10440000D01*
X10712500Y-8450000D02*
X14502500Y-8450000D01*
X10712500Y-10490000D02*
G75*
G02*
X10662500Y-10440000I0J50000D01*
G01*
X14552500Y-10440000D02*
G75*
G02*
X14502500Y-10490000I-50000J0D01*
G01*
X10662500Y-8500000D02*
G75*
G02*
X10712500Y-8450000I50000J0D01*
G01*
X14502500Y-8450000D02*
G75*
G02*
X14552500Y-8500000I0J-50000D01*
G01*
D11*
X12375000Y-9485000D02*
X12405000Y-9515000D01*
X12405000Y-9485000D02*
X12375000Y-9515000D01*
X12375000Y-9565000D02*
X12405000Y-9595000D01*
X12405000Y-9565000D02*
X12375000Y-9595000D01*
X12375000Y-9655000D02*
X12405000Y-9685000D01*
X12405000Y-9655000D02*
X12375000Y-9685000D01*
X12377857Y-9195000D02*
X12407857Y-9225000D01*
X12407857Y-9195000D02*
X12377857Y-9225000D01*
X12377857Y-9275000D02*
X12407857Y-9305000D01*
X12407857Y-9275000D02*
X12377857Y-9305000D01*
X12377857Y-9365000D02*
X12407857Y-9395000D01*
X12407857Y-9365000D02*
X12377857Y-9395000D01*
X12452143Y-9485000D02*
X12482143Y-9515000D01*
X12482143Y-9485000D02*
X12452143Y-9515000D01*
X12452143Y-9565000D02*
X12482143Y-9595000D01*
X12482143Y-9565000D02*
X12452143Y-9595000D01*
X12452143Y-9655000D02*
X12482143Y-9685000D01*
X12482143Y-9655000D02*
X12452143Y-9685000D01*
X12455000Y-9195000D02*
X12485000Y-9225000D01*
X12485000Y-9195000D02*
X12455000Y-9225000D01*
X12455000Y-9275000D02*
X12485000Y-9305000D01*
X12485000Y-9275000D02*
X12455000Y-9305000D01*
X12455000Y-9365000D02*
X12485000Y-9395000D01*
X12485000Y-9365000D02*
X12455000Y-9395000D01*
X12529286Y-9485000D02*
X12559286Y-9515000D01*
X12559286Y-9485000D02*
X12529286Y-9515000D01*
X12529286Y-9565000D02*
X12559286Y-9595000D01*
X12559286Y-9565000D02*
X12529286Y-9595000D01*
X12529286Y-9655000D02*
X12559286Y-9685000D01*
X12559286Y-9655000D02*
X12529286Y-9685000D01*
X12532143Y-9195000D02*
X12562143Y-9225000D01*
X12562143Y-9195000D02*
X12532143Y-9225000D01*
X12532143Y-9275000D02*
X12562143Y-9305000D01*
X12562143Y-9275000D02*
X12532143Y-9305000D01*
X12532143Y-9365000D02*
X12562143Y-9395000D01*
X12562143Y-9365000D02*
X12532143Y-9395000D01*
X12606428Y-9485000D02*
X12636428Y-9515000D01*
X12636428Y-9485000D02*
X12606428Y-9515000D01*
X12606428Y-9565000D02*
X12636428Y-9595000D01*
X12636428Y-9565000D02*
X12606428Y-9595000D01*
X12606428Y-9655000D02*
X12636428Y-9685000D01*
X12636428Y-9655000D02*
X12606428Y-9685000D01*
X12609286Y-9195000D02*
X12639286Y-9225000D01*
X12639286Y-9195000D02*
X12609286Y-9225000D01*
X12609286Y-9275000D02*
X12639286Y-9305000D01*
X12639286Y-9275000D02*
X12609286Y-9305000D01*
X12609286Y-9365000D02*
X12639286Y-9395000D01*
X12639286Y-9365000D02*
X12609286Y-9395000D01*
X12785000Y-10055000D02*
X12815000Y-10085000D01*
X12815000Y-10055000D02*
X12785000Y-10085000D01*
X13255000Y-8845000D02*
X13285000Y-8875000D01*
X13285000Y-8845000D02*
X13255000Y-8875000D01*
X13635000Y-8775000D02*
X13665000Y-8805000D01*
X13665000Y-8775000D02*
X13635000Y-8805000D01*
X12240000Y-8800000D02*
G75*
G02*
X12180000Y-8800000I-30000J0D01*
G01*
X12180000Y-8800000D02*
G75*
G02*
X12240000Y-8800000I30000J0D01*
G01*
X12390000Y-8800000D02*
G75*
G02*
X12330000Y-8800000I-30000J0D01*
G01*
X12330000Y-8800000D02*
G75*
G02*
X12390000Y-8800000I30000J0D01*
G01*
X12100000Y-9960000D02*
X12100000Y-10040000D01*
X12060000Y-10000000D02*
X12140000Y-10000000D01*
X12100000Y-10160000D02*
X12100000Y-10240000D01*
X12060000Y-10200000D02*
X12140000Y-10200000D01*
X12844500Y-8637500D02*
X12844500Y-8717500D01*
X12804500Y-8677500D02*
X12884500Y-8677500D01*
X13098500Y-8891500D02*
X13098500Y-8971500D01*
X13058500Y-8931500D02*
X13138500Y-8931500D01*
X13352500Y-8637500D02*
X13352500Y-8717500D01*
X13312500Y-8677500D02*
X13392500Y-8677500D01*
D12*
X10918891Y-9158891D02*
X10918891Y-9081109D01*
X10841109Y-9081109D01*
X10841109Y-9158891D01*
X10918891Y-9158891D01*
X11934891Y-9158891D02*
X11934891Y-9081109D01*
X11857109Y-9081109D01*
X11857109Y-9158891D01*
X11934891Y-9158891D01*
X13188891Y-9345391D02*
X13188891Y-9267609D01*
X13111109Y-9267609D01*
X13111109Y-9345391D01*
X13188891Y-9345391D01*
X13188891Y-10361391D02*
X13188891Y-10283609D01*
X13111109Y-10283609D01*
X13111109Y-10361391D01*
X13188891Y-10361391D01*
D13*
X11252500Y-9709500D02*
X11317500Y-9644500D01*
X11252500Y-9579500D01*
X11187500Y-9644500D01*
X11252500Y-9709500D01*
X11252500Y-10217500D02*
X11317500Y-10152500D01*
X11252500Y-10087500D01*
X11187500Y-10152500D01*
X11252500Y-10217500D01*
X14050000Y-9710500D02*
X14115000Y-9645500D01*
X14050000Y-9580500D01*
X13985000Y-9645500D01*
X14050000Y-9710500D01*
X14050000Y-10218500D02*
X14115000Y-10153500D01*
X14050000Y-10088500D01*
X13985000Y-10153500D01*
X14050000Y-10218500D01*
D10*
X10913277Y-10811484D02*
X10913277Y-10611484D01*
X10913277Y-10611484D02*
X10960896Y-10611484D01*
X10960896Y-10611484D02*
X10989467Y-10621008D01*
X10989467Y-10621008D02*
X11008515Y-10640055D01*
X11008515Y-10640055D02*
X11018039Y-10659103D01*
X11018039Y-10659103D02*
X11027563Y-10697198D01*
X11027563Y-10697198D02*
X11027563Y-10725770D01*
X11027563Y-10725770D02*
X11018039Y-10763865D01*
X11018039Y-10763865D02*
X11008515Y-10782912D01*
X11008515Y-10782912D02*
X10989467Y-10801960D01*
X10989467Y-10801960D02*
X10960896Y-10811484D01*
X10960896Y-10811484D02*
X10913277Y-10811484D01*
X11113277Y-10811484D02*
X11113277Y-10678150D01*
X11113277Y-10716246D02*
X11122801Y-10697198D01*
X11122801Y-10697198D02*
X11132324Y-10687674D01*
X11132324Y-10687674D02*
X11151372Y-10678150D01*
X11151372Y-10678150D02*
X11170420Y-10678150D01*
X11237086Y-10811484D02*
X11237086Y-10678150D01*
X11237086Y-10611484D02*
X11227562Y-10621008D01*
X11227562Y-10621008D02*
X11237086Y-10630531D01*
X11237086Y-10630531D02*
X11246610Y-10621008D01*
X11246610Y-10621008D02*
X11237086Y-10611484D01*
X11237086Y-10611484D02*
X11237086Y-10630531D01*
X11360896Y-10811484D02*
X11341848Y-10801960D01*
X11341848Y-10801960D02*
X11332324Y-10782912D01*
X11332324Y-10782912D02*
X11332324Y-10611484D01*
X11465658Y-10811484D02*
X11446610Y-10801960D01*
X11446610Y-10801960D02*
X11437086Y-10782912D01*
X11437086Y-10782912D02*
X11437086Y-10611484D01*
X11694229Y-10811484D02*
X11694229Y-10611484D01*
X11694229Y-10611484D02*
X11760896Y-10754341D01*
X11760896Y-10754341D02*
X11827562Y-10611484D01*
X11827562Y-10611484D02*
X11827562Y-10811484D01*
X12008515Y-10811484D02*
X12008515Y-10706722D01*
X12008515Y-10706722D02*
X11998991Y-10687674D01*
X11998991Y-10687674D02*
X11979943Y-10678150D01*
X11979943Y-10678150D02*
X11941848Y-10678150D01*
X11941848Y-10678150D02*
X11922801Y-10687674D01*
X12008515Y-10801960D02*
X11989467Y-10811484D01*
X11989467Y-10811484D02*
X11941848Y-10811484D01*
X11941848Y-10811484D02*
X11922801Y-10801960D01*
X11922801Y-10801960D02*
X11913277Y-10782912D01*
X11913277Y-10782912D02*
X11913277Y-10763865D01*
X11913277Y-10763865D02*
X11922801Y-10744817D01*
X11922801Y-10744817D02*
X11941848Y-10735293D01*
X11941848Y-10735293D02*
X11989467Y-10735293D01*
X11989467Y-10735293D02*
X12008515Y-10725770D01*
X12103753Y-10678150D02*
X12103753Y-10878150D01*
X12103753Y-10687674D02*
X12122801Y-10678150D01*
X12122801Y-10678150D02*
X12160896Y-10678150D01*
X12160896Y-10678150D02*
X12179943Y-10687674D01*
X12179943Y-10687674D02*
X12189467Y-10697198D01*
X12189467Y-10697198D02*
X12198991Y-10716246D01*
X12198991Y-10716246D02*
X12198991Y-10773389D01*
X12198991Y-10773389D02*
X12189467Y-10792436D01*
X12189467Y-10792436D02*
X12179943Y-10801960D01*
X12179943Y-10801960D02*
X12160896Y-10811484D01*
X12160896Y-10811484D02*
X12122801Y-10811484D01*
X12122801Y-10811484D02*
X12103753Y-10801960D01*
X12284705Y-10792436D02*
X12294229Y-10801960D01*
X12294229Y-10801960D02*
X12284705Y-10811484D01*
X12284705Y-10811484D02*
X12275182Y-10801960D01*
X12275182Y-10801960D02*
X12284705Y-10792436D01*
X12284705Y-10792436D02*
X12284705Y-10811484D01*
X12284705Y-10687674D02*
X12294229Y-10697198D01*
X12294229Y-10697198D02*
X12284705Y-10706722D01*
X12284705Y-10706722D02*
X12275182Y-10697198D01*
X12275182Y-10697198D02*
X12284705Y-10687674D01*
X12284705Y-10687674D02*
X12284705Y-10706722D01*
D11*
X10622500Y-11125000D02*
X10652500Y-11155000D01*
X10652500Y-11125000D02*
X10622500Y-11155000D01*
D10*
X10951372Y-11031484D02*
X10970420Y-11031484D01*
X10970420Y-11031484D02*
X10989467Y-11041008D01*
X10989467Y-11041008D02*
X10998991Y-11050531D01*
X10998991Y-11050531D02*
X11008515Y-11069579D01*
X11008515Y-11069579D02*
X11018039Y-11107674D01*
X11018039Y-11107674D02*
X11018039Y-11155293D01*
X11018039Y-11155293D02*
X11008515Y-11193388D01*
X11008515Y-11193388D02*
X10998991Y-11212436D01*
X10998991Y-11212436D02*
X10989467Y-11221960D01*
X10989467Y-11221960D02*
X10970420Y-11231484D01*
X10970420Y-11231484D02*
X10951372Y-11231484D01*
X10951372Y-11231484D02*
X10932324Y-11221960D01*
X10932324Y-11221960D02*
X10922801Y-11212436D01*
X10922801Y-11212436D02*
X10913277Y-11193388D01*
X10913277Y-11193388D02*
X10903753Y-11155293D01*
X10903753Y-11155293D02*
X10903753Y-11107674D01*
X10903753Y-11107674D02*
X10913277Y-11069579D01*
X10913277Y-11069579D02*
X10922801Y-11050531D01*
X10922801Y-11050531D02*
X10932324Y-11041008D01*
X10932324Y-11041008D02*
X10951372Y-11031484D01*
X11103753Y-11212436D02*
X11113277Y-11221960D01*
X11113277Y-11221960D02*
X11103753Y-11231484D01*
X11103753Y-11231484D02*
X11094229Y-11221960D01*
X11094229Y-11221960D02*
X11103753Y-11212436D01*
X11103753Y-11212436D02*
X11103753Y-11231484D01*
X11179944Y-11031484D02*
X11303753Y-11031484D01*
X11303753Y-11031484D02*
X11237086Y-11107674D01*
X11237086Y-11107674D02*
X11265658Y-11107674D01*
X11265658Y-11107674D02*
X11284705Y-11117198D01*
X11284705Y-11117198D02*
X11294229Y-11126722D01*
X11294229Y-11126722D02*
X11303753Y-11145770D01*
X11303753Y-11145770D02*
X11303753Y-11193388D01*
X11303753Y-11193388D02*
X11294229Y-11212436D01*
X11294229Y-11212436D02*
X11284705Y-11221960D01*
X11284705Y-11221960D02*
X11265658Y-11231484D01*
X11265658Y-11231484D02*
X11208515Y-11231484D01*
X11208515Y-11231484D02*
X11189467Y-11221960D01*
X11189467Y-11221960D02*
X11179944Y-11212436D01*
X11427562Y-11031484D02*
X11446610Y-11031484D01*
X11446610Y-11031484D02*
X11465658Y-11041008D01*
X11465658Y-11041008D02*
X11475182Y-11050531D01*
X11475182Y-11050531D02*
X11484705Y-11069579D01*
X11484705Y-11069579D02*
X11494229Y-11107674D01*
X11494229Y-11107674D02*
X11494229Y-11155293D01*
X11494229Y-11155293D02*
X11484705Y-11193388D01*
X11484705Y-11193388D02*
X11475182Y-11212436D01*
X11475182Y-11212436D02*
X11465658Y-11221960D01*
X11465658Y-11221960D02*
X11446610Y-11231484D01*
X11446610Y-11231484D02*
X11427562Y-11231484D01*
X11427562Y-11231484D02*
X11408515Y-11221960D01*
X11408515Y-11221960D02*
X11398991Y-11212436D01*
X11398991Y-11212436D02*
X11389467Y-11193388D01*
X11389467Y-11193388D02*
X11379943Y-11155293D01*
X11379943Y-11155293D02*
X11379943Y-11107674D01*
X11379943Y-11107674D02*
X11389467Y-11069579D01*
X11389467Y-11069579D02*
X11398991Y-11050531D01*
X11398991Y-11050531D02*
X11408515Y-11041008D01*
X11408515Y-11041008D02*
X11427562Y-11031484D01*
X11618039Y-11031484D02*
X11637086Y-11031484D01*
X11637086Y-11031484D02*
X11656134Y-11041008D01*
X11656134Y-11041008D02*
X11665658Y-11050531D01*
X11665658Y-11050531D02*
X11675182Y-11069579D01*
X11675182Y-11069579D02*
X11684705Y-11107674D01*
X11684705Y-11107674D02*
X11684705Y-11155293D01*
X11684705Y-11155293D02*
X11675182Y-11193388D01*
X11675182Y-11193388D02*
X11665658Y-11212436D01*
X11665658Y-11212436D02*
X11656134Y-11221960D01*
X11656134Y-11221960D02*
X11637086Y-11231484D01*
X11637086Y-11231484D02*
X11618039Y-11231484D01*
X11618039Y-11231484D02*
X11598991Y-11221960D01*
X11598991Y-11221960D02*
X11589467Y-11212436D01*
X11589467Y-11212436D02*
X11579943Y-11193388D01*
X11579943Y-11193388D02*
X11570420Y-11155293D01*
X11570420Y-11155293D02*
X11570420Y-11107674D01*
X11570420Y-11107674D02*
X11579943Y-11069579D01*
X11579943Y-11069579D02*
X11589467Y-11050531D01*
X11589467Y-11050531D02*
X11598991Y-11041008D01*
X11598991Y-11041008D02*
X11618039Y-11031484D01*
X11770420Y-11231484D02*
X11770420Y-11098150D01*
X11770420Y-11117198D02*
X11779943Y-11107674D01*
X11779943Y-11107674D02*
X11798991Y-11098150D01*
X11798991Y-11098150D02*
X11827563Y-11098150D01*
X11827563Y-11098150D02*
X11846610Y-11107674D01*
X11846610Y-11107674D02*
X11856134Y-11126722D01*
X11856134Y-11126722D02*
X11856134Y-11231484D01*
X11856134Y-11126722D02*
X11865658Y-11107674D01*
X11865658Y-11107674D02*
X11884705Y-11098150D01*
X11884705Y-11098150D02*
X11913277Y-11098150D01*
X11913277Y-11098150D02*
X11932324Y-11107674D01*
X11932324Y-11107674D02*
X11941848Y-11126722D01*
X11941848Y-11126722D02*
X11941848Y-11231484D01*
X12037086Y-11231484D02*
X12037086Y-11098150D01*
X12037086Y-11117198D02*
X12046610Y-11107674D01*
X12046610Y-11107674D02*
X12065658Y-11098150D01*
X12065658Y-11098150D02*
X12094229Y-11098150D01*
X12094229Y-11098150D02*
X12113277Y-11107674D01*
X12113277Y-11107674D02*
X12122801Y-11126722D01*
X12122801Y-11126722D02*
X12122801Y-11231484D01*
X12122801Y-11126722D02*
X12132324Y-11107674D01*
X12132324Y-11107674D02*
X12151372Y-11098150D01*
X12151372Y-11098150D02*
X12179943Y-11098150D01*
X12179943Y-11098150D02*
X12198991Y-11107674D01*
X12198991Y-11107674D02*
X12208515Y-11126722D01*
X12208515Y-11126722D02*
X12208515Y-11231484D01*
X12598991Y-11021960D02*
X12427563Y-11279103D01*
X12856134Y-11031484D02*
X12875182Y-11031484D01*
X12875182Y-11031484D02*
X12894229Y-11041008D01*
X12894229Y-11041008D02*
X12903753Y-11050531D01*
X12903753Y-11050531D02*
X12913277Y-11069579D01*
X12913277Y-11069579D02*
X12922801Y-11107674D01*
X12922801Y-11107674D02*
X12922801Y-11155293D01*
X12922801Y-11155293D02*
X12913277Y-11193388D01*
X12913277Y-11193388D02*
X12903753Y-11212436D01*
X12903753Y-11212436D02*
X12894229Y-11221960D01*
X12894229Y-11221960D02*
X12875182Y-11231484D01*
X12875182Y-11231484D02*
X12856134Y-11231484D01*
X12856134Y-11231484D02*
X12837086Y-11221960D01*
X12837086Y-11221960D02*
X12827563Y-11212436D01*
X12827563Y-11212436D02*
X12818039Y-11193388D01*
X12818039Y-11193388D02*
X12808515Y-11155293D01*
X12808515Y-11155293D02*
X12808515Y-11107674D01*
X12808515Y-11107674D02*
X12818039Y-11069579D01*
X12818039Y-11069579D02*
X12827563Y-11050531D01*
X12827563Y-11050531D02*
X12837086Y-11041008D01*
X12837086Y-11041008D02*
X12856134Y-11031484D01*
X13008515Y-11212436D02*
X13018039Y-11221960D01*
X13018039Y-11221960D02*
X13008515Y-11231484D01*
X13008515Y-11231484D02*
X12998991Y-11221960D01*
X12998991Y-11221960D02*
X13008515Y-11212436D01*
X13008515Y-11212436D02*
X13008515Y-11231484D01*
X13141848Y-11031484D02*
X13160896Y-11031484D01*
X13160896Y-11031484D02*
X13179944Y-11041008D01*
X13179944Y-11041008D02*
X13189467Y-11050531D01*
X13189467Y-11050531D02*
X13198991Y-11069579D01*
X13198991Y-11069579D02*
X13208515Y-11107674D01*
X13208515Y-11107674D02*
X13208515Y-11155293D01*
X13208515Y-11155293D02*
X13198991Y-11193388D01*
X13198991Y-11193388D02*
X13189467Y-11212436D01*
X13189467Y-11212436D02*
X13179944Y-11221960D01*
X13179944Y-11221960D02*
X13160896Y-11231484D01*
X13160896Y-11231484D02*
X13141848Y-11231484D01*
X13141848Y-11231484D02*
X13122801Y-11221960D01*
X13122801Y-11221960D02*
X13113277Y-11212436D01*
X13113277Y-11212436D02*
X13103753Y-11193388D01*
X13103753Y-11193388D02*
X13094229Y-11155293D01*
X13094229Y-11155293D02*
X13094229Y-11107674D01*
X13094229Y-11107674D02*
X13103753Y-11069579D01*
X13103753Y-11069579D02*
X13113277Y-11050531D01*
X13113277Y-11050531D02*
X13122801Y-11041008D01*
X13122801Y-11041008D02*
X13141848Y-11031484D01*
X13398991Y-11231484D02*
X13284706Y-11231484D01*
X13341848Y-11231484D02*
X13341848Y-11031484D01*
X13341848Y-11031484D02*
X13322801Y-11060055D01*
X13322801Y-11060055D02*
X13303753Y-11079103D01*
X13303753Y-11079103D02*
X13284706Y-11088627D01*
X13589467Y-11231484D02*
X13475182Y-11231484D01*
X13532325Y-11231484D02*
X13532325Y-11031484D01*
X13532325Y-11031484D02*
X13513277Y-11060055D01*
X13513277Y-11060055D02*
X13494229Y-11079103D01*
X13494229Y-11079103D02*
X13475182Y-11088627D01*
X13703753Y-11117198D02*
X13684706Y-11107674D01*
X13684706Y-11107674D02*
X13675182Y-11098150D01*
X13675182Y-11098150D02*
X13665658Y-11079103D01*
X13665658Y-11079103D02*
X13665658Y-11069579D01*
X13665658Y-11069579D02*
X13675182Y-11050531D01*
X13675182Y-11050531D02*
X13684706Y-11041008D01*
X13684706Y-11041008D02*
X13703753Y-11031484D01*
X13703753Y-11031484D02*
X13741848Y-11031484D01*
X13741848Y-11031484D02*
X13760896Y-11041008D01*
X13760896Y-11041008D02*
X13770420Y-11050531D01*
X13770420Y-11050531D02*
X13779944Y-11069579D01*
X13779944Y-11069579D02*
X13779944Y-11079103D01*
X13779944Y-11079103D02*
X13770420Y-11098150D01*
X13770420Y-11098150D02*
X13760896Y-11107674D01*
X13760896Y-11107674D02*
X13741848Y-11117198D01*
X13741848Y-11117198D02*
X13703753Y-11117198D01*
X13703753Y-11117198D02*
X13684706Y-11126722D01*
X13684706Y-11126722D02*
X13675182Y-11136246D01*
X13675182Y-11136246D02*
X13665658Y-11155293D01*
X13665658Y-11155293D02*
X13665658Y-11193388D01*
X13665658Y-11193388D02*
X13675182Y-11212436D01*
X13675182Y-11212436D02*
X13684706Y-11221960D01*
X13684706Y-11221960D02*
X13703753Y-11231484D01*
X13703753Y-11231484D02*
X13741848Y-11231484D01*
X13741848Y-11231484D02*
X13760896Y-11221960D01*
X13760896Y-11221960D02*
X13770420Y-11212436D01*
X13770420Y-11212436D02*
X13779944Y-11193388D01*
X13779944Y-11193388D02*
X13779944Y-11155293D01*
X13779944Y-11155293D02*
X13770420Y-11136246D01*
X13770420Y-11136246D02*
X13760896Y-11126722D01*
X13760896Y-11126722D02*
X13741848Y-11117198D01*
X13856134Y-11031484D02*
X13856134Y-11069579D01*
X13932325Y-11031484D02*
X13932325Y-11069579D01*
X14227563Y-11307674D02*
X14218039Y-11298150D01*
X14218039Y-11298150D02*
X14198991Y-11269579D01*
X14198991Y-11269579D02*
X14189468Y-11250531D01*
X14189468Y-11250531D02*
X14179944Y-11221960D01*
X14179944Y-11221960D02*
X14170420Y-11174341D01*
X14170420Y-11174341D02*
X14170420Y-11136246D01*
X14170420Y-11136246D02*
X14179944Y-11088627D01*
X14179944Y-11088627D02*
X14189468Y-11060055D01*
X14189468Y-11060055D02*
X14198991Y-11041008D01*
X14198991Y-11041008D02*
X14218039Y-11012436D01*
X14218039Y-11012436D02*
X14227563Y-11002912D01*
X14294229Y-11050531D02*
X14303753Y-11041008D01*
X14303753Y-11041008D02*
X14322801Y-11031484D01*
X14322801Y-11031484D02*
X14370420Y-11031484D01*
X14370420Y-11031484D02*
X14389468Y-11041008D01*
X14389468Y-11041008D02*
X14398991Y-11050531D01*
X14398991Y-11050531D02*
X14408515Y-11069579D01*
X14408515Y-11069579D02*
X14408515Y-11088627D01*
X14408515Y-11088627D02*
X14398991Y-11117198D01*
X14398991Y-11117198D02*
X14284706Y-11231484D01*
X14284706Y-11231484D02*
X14408515Y-11231484D01*
X14475182Y-11031484D02*
X14608515Y-11031484D01*
X14608515Y-11031484D02*
X14522801Y-11231484D01*
X14837087Y-11231484D02*
X14837087Y-11031484D01*
X14922801Y-11231484D02*
X14922801Y-11126722D01*
X14922801Y-11126722D02*
X14913277Y-11107674D01*
X14913277Y-11107674D02*
X14894230Y-11098150D01*
X14894230Y-11098150D02*
X14865658Y-11098150D01*
X14865658Y-11098150D02*
X14846610Y-11107674D01*
X14846610Y-11107674D02*
X14837087Y-11117198D01*
X15046610Y-11231484D02*
X15027563Y-11221960D01*
X15027563Y-11221960D02*
X15018039Y-11212436D01*
X15018039Y-11212436D02*
X15008515Y-11193388D01*
X15008515Y-11193388D02*
X15008515Y-11136246D01*
X15008515Y-11136246D02*
X15018039Y-11117198D01*
X15018039Y-11117198D02*
X15027563Y-11107674D01*
X15027563Y-11107674D02*
X15046610Y-11098150D01*
X15046610Y-11098150D02*
X15075182Y-11098150D01*
X15075182Y-11098150D02*
X15094230Y-11107674D01*
X15094230Y-11107674D02*
X15103753Y-11117198D01*
X15103753Y-11117198D02*
X15113277Y-11136246D01*
X15113277Y-11136246D02*
X15113277Y-11193388D01*
X15113277Y-11193388D02*
X15103753Y-11212436D01*
X15103753Y-11212436D02*
X15094230Y-11221960D01*
X15094230Y-11221960D02*
X15075182Y-11231484D01*
X15075182Y-11231484D02*
X15046610Y-11231484D01*
X15227563Y-11231484D02*
X15208515Y-11221960D01*
X15208515Y-11221960D02*
X15198991Y-11202912D01*
X15198991Y-11202912D02*
X15198991Y-11031484D01*
X15379944Y-11221960D02*
X15360896Y-11231484D01*
X15360896Y-11231484D02*
X15322801Y-11231484D01*
X15322801Y-11231484D02*
X15303753Y-11221960D01*
X15303753Y-11221960D02*
X15294230Y-11202912D01*
X15294230Y-11202912D02*
X15294230Y-11126722D01*
X15294230Y-11126722D02*
X15303753Y-11107674D01*
X15303753Y-11107674D02*
X15322801Y-11098150D01*
X15322801Y-11098150D02*
X15360896Y-11098150D01*
X15360896Y-11098150D02*
X15379944Y-11107674D01*
X15379944Y-11107674D02*
X15389468Y-11126722D01*
X15389468Y-11126722D02*
X15389468Y-11145770D01*
X15389468Y-11145770D02*
X15294230Y-11164817D01*
X15465658Y-11221960D02*
X15484706Y-11231484D01*
X15484706Y-11231484D02*
X15522801Y-11231484D01*
X15522801Y-11231484D02*
X15541849Y-11221960D01*
X15541849Y-11221960D02*
X15551372Y-11202912D01*
X15551372Y-11202912D02*
X15551372Y-11193388D01*
X15551372Y-11193388D02*
X15541849Y-11174341D01*
X15541849Y-11174341D02*
X15522801Y-11164817D01*
X15522801Y-11164817D02*
X15494230Y-11164817D01*
X15494230Y-11164817D02*
X15475182Y-11155293D01*
X15475182Y-11155293D02*
X15465658Y-11136246D01*
X15465658Y-11136246D02*
X15465658Y-11126722D01*
X15465658Y-11126722D02*
X15475182Y-11107674D01*
X15475182Y-11107674D02*
X15494230Y-11098150D01*
X15494230Y-11098150D02*
X15522801Y-11098150D01*
X15522801Y-11098150D02*
X15541849Y-11107674D01*
X15618039Y-11307674D02*
X15627563Y-11298150D01*
X15627563Y-11298150D02*
X15646611Y-11269579D01*
X15646611Y-11269579D02*
X15656134Y-11250531D01*
X15656134Y-11250531D02*
X15665658Y-11221960D01*
X15665658Y-11221960D02*
X15675182Y-11174341D01*
X15675182Y-11174341D02*
X15675182Y-11136246D01*
X15675182Y-11136246D02*
X15665658Y-11088627D01*
X15665658Y-11088627D02*
X15656134Y-11060055D01*
X15656134Y-11060055D02*
X15646611Y-11041008D01*
X15646611Y-11041008D02*
X15627563Y-11012436D01*
X15627563Y-11012436D02*
X15618039Y-11002912D01*
D11*
X10652500Y-11404000D02*
G75*
G02*
X10592500Y-11404000I-30000J0D01*
G01*
X10592500Y-11404000D02*
G75*
G02*
X10652500Y-11404000I30000J0D01*
G01*
D10*
X10951372Y-11295484D02*
X10970420Y-11295484D01*
X10970420Y-11295484D02*
X10989467Y-11305008D01*
X10989467Y-11305008D02*
X10998991Y-11314531D01*
X10998991Y-11314531D02*
X11008515Y-11333579D01*
X11008515Y-11333579D02*
X11018039Y-11371674D01*
X11018039Y-11371674D02*
X11018039Y-11419293D01*
X11018039Y-11419293D02*
X11008515Y-11457388D01*
X11008515Y-11457388D02*
X10998991Y-11476436D01*
X10998991Y-11476436D02*
X10989467Y-11485960D01*
X10989467Y-11485960D02*
X10970420Y-11495484D01*
X10970420Y-11495484D02*
X10951372Y-11495484D01*
X10951372Y-11495484D02*
X10932324Y-11485960D01*
X10932324Y-11485960D02*
X10922801Y-11476436D01*
X10922801Y-11476436D02*
X10913277Y-11457388D01*
X10913277Y-11457388D02*
X10903753Y-11419293D01*
X10903753Y-11419293D02*
X10903753Y-11371674D01*
X10903753Y-11371674D02*
X10913277Y-11333579D01*
X10913277Y-11333579D02*
X10922801Y-11314531D01*
X10922801Y-11314531D02*
X10932324Y-11305008D01*
X10932324Y-11305008D02*
X10951372Y-11295484D01*
X11103753Y-11476436D02*
X11113277Y-11485960D01*
X11113277Y-11485960D02*
X11103753Y-11495484D01*
X11103753Y-11495484D02*
X11094229Y-11485960D01*
X11094229Y-11485960D02*
X11103753Y-11476436D01*
X11103753Y-11476436D02*
X11103753Y-11495484D01*
X11284705Y-11295484D02*
X11246610Y-11295484D01*
X11246610Y-11295484D02*
X11227562Y-11305008D01*
X11227562Y-11305008D02*
X11218039Y-11314531D01*
X11218039Y-11314531D02*
X11198991Y-11343103D01*
X11198991Y-11343103D02*
X11189467Y-11381198D01*
X11189467Y-11381198D02*
X11189467Y-11457388D01*
X11189467Y-11457388D02*
X11198991Y-11476436D01*
X11198991Y-11476436D02*
X11208515Y-11485960D01*
X11208515Y-11485960D02*
X11227562Y-11495484D01*
X11227562Y-11495484D02*
X11265658Y-11495484D01*
X11265658Y-11495484D02*
X11284705Y-11485960D01*
X11284705Y-11485960D02*
X11294229Y-11476436D01*
X11294229Y-11476436D02*
X11303753Y-11457388D01*
X11303753Y-11457388D02*
X11303753Y-11409769D01*
X11303753Y-11409769D02*
X11294229Y-11390722D01*
X11294229Y-11390722D02*
X11284705Y-11381198D01*
X11284705Y-11381198D02*
X11265658Y-11371674D01*
X11265658Y-11371674D02*
X11227562Y-11371674D01*
X11227562Y-11371674D02*
X11208515Y-11381198D01*
X11208515Y-11381198D02*
X11198991Y-11390722D01*
X11198991Y-11390722D02*
X11189467Y-11409769D01*
X11427562Y-11295484D02*
X11446610Y-11295484D01*
X11446610Y-11295484D02*
X11465658Y-11305008D01*
X11465658Y-11305008D02*
X11475182Y-11314531D01*
X11475182Y-11314531D02*
X11484705Y-11333579D01*
X11484705Y-11333579D02*
X11494229Y-11371674D01*
X11494229Y-11371674D02*
X11494229Y-11419293D01*
X11494229Y-11419293D02*
X11484705Y-11457388D01*
X11484705Y-11457388D02*
X11475182Y-11476436D01*
X11475182Y-11476436D02*
X11465658Y-11485960D01*
X11465658Y-11485960D02*
X11446610Y-11495484D01*
X11446610Y-11495484D02*
X11427562Y-11495484D01*
X11427562Y-11495484D02*
X11408515Y-11485960D01*
X11408515Y-11485960D02*
X11398991Y-11476436D01*
X11398991Y-11476436D02*
X11389467Y-11457388D01*
X11389467Y-11457388D02*
X11379943Y-11419293D01*
X11379943Y-11419293D02*
X11379943Y-11371674D01*
X11379943Y-11371674D02*
X11389467Y-11333579D01*
X11389467Y-11333579D02*
X11398991Y-11314531D01*
X11398991Y-11314531D02*
X11408515Y-11305008D01*
X11408515Y-11305008D02*
X11427562Y-11295484D01*
X11618039Y-11295484D02*
X11637086Y-11295484D01*
X11637086Y-11295484D02*
X11656134Y-11305008D01*
X11656134Y-11305008D02*
X11665658Y-11314531D01*
X11665658Y-11314531D02*
X11675182Y-11333579D01*
X11675182Y-11333579D02*
X11684705Y-11371674D01*
X11684705Y-11371674D02*
X11684705Y-11419293D01*
X11684705Y-11419293D02*
X11675182Y-11457388D01*
X11675182Y-11457388D02*
X11665658Y-11476436D01*
X11665658Y-11476436D02*
X11656134Y-11485960D01*
X11656134Y-11485960D02*
X11637086Y-11495484D01*
X11637086Y-11495484D02*
X11618039Y-11495484D01*
X11618039Y-11495484D02*
X11598991Y-11485960D01*
X11598991Y-11485960D02*
X11589467Y-11476436D01*
X11589467Y-11476436D02*
X11579943Y-11457388D01*
X11579943Y-11457388D02*
X11570420Y-11419293D01*
X11570420Y-11419293D02*
X11570420Y-11371674D01*
X11570420Y-11371674D02*
X11579943Y-11333579D01*
X11579943Y-11333579D02*
X11589467Y-11314531D01*
X11589467Y-11314531D02*
X11598991Y-11305008D01*
X11598991Y-11305008D02*
X11618039Y-11295484D01*
X11770420Y-11495484D02*
X11770420Y-11362150D01*
X11770420Y-11381198D02*
X11779943Y-11371674D01*
X11779943Y-11371674D02*
X11798991Y-11362150D01*
X11798991Y-11362150D02*
X11827563Y-11362150D01*
X11827563Y-11362150D02*
X11846610Y-11371674D01*
X11846610Y-11371674D02*
X11856134Y-11390722D01*
X11856134Y-11390722D02*
X11856134Y-11495484D01*
X11856134Y-11390722D02*
X11865658Y-11371674D01*
X11865658Y-11371674D02*
X11884705Y-11362150D01*
X11884705Y-11362150D02*
X11913277Y-11362150D01*
X11913277Y-11362150D02*
X11932324Y-11371674D01*
X11932324Y-11371674D02*
X11941848Y-11390722D01*
X11941848Y-11390722D02*
X11941848Y-11495484D01*
X12037086Y-11495484D02*
X12037086Y-11362150D01*
X12037086Y-11381198D02*
X12046610Y-11371674D01*
X12046610Y-11371674D02*
X12065658Y-11362150D01*
X12065658Y-11362150D02*
X12094229Y-11362150D01*
X12094229Y-11362150D02*
X12113277Y-11371674D01*
X12113277Y-11371674D02*
X12122801Y-11390722D01*
X12122801Y-11390722D02*
X12122801Y-11495484D01*
X12122801Y-11390722D02*
X12132324Y-11371674D01*
X12132324Y-11371674D02*
X12151372Y-11362150D01*
X12151372Y-11362150D02*
X12179943Y-11362150D01*
X12179943Y-11362150D02*
X12198991Y-11371674D01*
X12198991Y-11371674D02*
X12208515Y-11390722D01*
X12208515Y-11390722D02*
X12208515Y-11495484D01*
X12598991Y-11285960D02*
X12427563Y-11543103D01*
X12856134Y-11295484D02*
X12875182Y-11295484D01*
X12875182Y-11295484D02*
X12894229Y-11305008D01*
X12894229Y-11305008D02*
X12903753Y-11314531D01*
X12903753Y-11314531D02*
X12913277Y-11333579D01*
X12913277Y-11333579D02*
X12922801Y-11371674D01*
X12922801Y-11371674D02*
X12922801Y-11419293D01*
X12922801Y-11419293D02*
X12913277Y-11457388D01*
X12913277Y-11457388D02*
X12903753Y-11476436D01*
X12903753Y-11476436D02*
X12894229Y-11485960D01*
X12894229Y-11485960D02*
X12875182Y-11495484D01*
X12875182Y-11495484D02*
X12856134Y-11495484D01*
X12856134Y-11495484D02*
X12837086Y-11485960D01*
X12837086Y-11485960D02*
X12827563Y-11476436D01*
X12827563Y-11476436D02*
X12818039Y-11457388D01*
X12818039Y-11457388D02*
X12808515Y-11419293D01*
X12808515Y-11419293D02*
X12808515Y-11371674D01*
X12808515Y-11371674D02*
X12818039Y-11333579D01*
X12818039Y-11333579D02*
X12827563Y-11314531D01*
X12827563Y-11314531D02*
X12837086Y-11305008D01*
X12837086Y-11305008D02*
X12856134Y-11295484D01*
X13008515Y-11476436D02*
X13018039Y-11485960D01*
X13018039Y-11485960D02*
X13008515Y-11495484D01*
X13008515Y-11495484D02*
X12998991Y-11485960D01*
X12998991Y-11485960D02*
X13008515Y-11476436D01*
X13008515Y-11476436D02*
X13008515Y-11495484D01*
X13141848Y-11295484D02*
X13160896Y-11295484D01*
X13160896Y-11295484D02*
X13179944Y-11305008D01*
X13179944Y-11305008D02*
X13189467Y-11314531D01*
X13189467Y-11314531D02*
X13198991Y-11333579D01*
X13198991Y-11333579D02*
X13208515Y-11371674D01*
X13208515Y-11371674D02*
X13208515Y-11419293D01*
X13208515Y-11419293D02*
X13198991Y-11457388D01*
X13198991Y-11457388D02*
X13189467Y-11476436D01*
X13189467Y-11476436D02*
X13179944Y-11485960D01*
X13179944Y-11485960D02*
X13160896Y-11495484D01*
X13160896Y-11495484D02*
X13141848Y-11495484D01*
X13141848Y-11495484D02*
X13122801Y-11485960D01*
X13122801Y-11485960D02*
X13113277Y-11476436D01*
X13113277Y-11476436D02*
X13103753Y-11457388D01*
X13103753Y-11457388D02*
X13094229Y-11419293D01*
X13094229Y-11419293D02*
X13094229Y-11371674D01*
X13094229Y-11371674D02*
X13103753Y-11333579D01*
X13103753Y-11333579D02*
X13113277Y-11314531D01*
X13113277Y-11314531D02*
X13122801Y-11305008D01*
X13122801Y-11305008D02*
X13141848Y-11295484D01*
X13284706Y-11314531D02*
X13294229Y-11305008D01*
X13294229Y-11305008D02*
X13313277Y-11295484D01*
X13313277Y-11295484D02*
X13360896Y-11295484D01*
X13360896Y-11295484D02*
X13379944Y-11305008D01*
X13379944Y-11305008D02*
X13389467Y-11314531D01*
X13389467Y-11314531D02*
X13398991Y-11333579D01*
X13398991Y-11333579D02*
X13398991Y-11352627D01*
X13398991Y-11352627D02*
X13389467Y-11381198D01*
X13389467Y-11381198D02*
X13275182Y-11495484D01*
X13275182Y-11495484D02*
X13398991Y-11495484D01*
X13465658Y-11295484D02*
X13589467Y-11295484D01*
X13589467Y-11295484D02*
X13522801Y-11371674D01*
X13522801Y-11371674D02*
X13551372Y-11371674D01*
X13551372Y-11371674D02*
X13570420Y-11381198D01*
X13570420Y-11381198D02*
X13579944Y-11390722D01*
X13579944Y-11390722D02*
X13589467Y-11409769D01*
X13589467Y-11409769D02*
X13589467Y-11457388D01*
X13589467Y-11457388D02*
X13579944Y-11476436D01*
X13579944Y-11476436D02*
X13570420Y-11485960D01*
X13570420Y-11485960D02*
X13551372Y-11495484D01*
X13551372Y-11495484D02*
X13494229Y-11495484D01*
X13494229Y-11495484D02*
X13475182Y-11485960D01*
X13475182Y-11485960D02*
X13465658Y-11476436D01*
X13760896Y-11295484D02*
X13722801Y-11295484D01*
X13722801Y-11295484D02*
X13703753Y-11305008D01*
X13703753Y-11305008D02*
X13694229Y-11314531D01*
X13694229Y-11314531D02*
X13675182Y-11343103D01*
X13675182Y-11343103D02*
X13665658Y-11381198D01*
X13665658Y-11381198D02*
X13665658Y-11457388D01*
X13665658Y-11457388D02*
X13675182Y-11476436D01*
X13675182Y-11476436D02*
X13684706Y-11485960D01*
X13684706Y-11485960D02*
X13703753Y-11495484D01*
X13703753Y-11495484D02*
X13741848Y-11495484D01*
X13741848Y-11495484D02*
X13760896Y-11485960D01*
X13760896Y-11485960D02*
X13770420Y-11476436D01*
X13770420Y-11476436D02*
X13779944Y-11457388D01*
X13779944Y-11457388D02*
X13779944Y-11409769D01*
X13779944Y-11409769D02*
X13770420Y-11390722D01*
X13770420Y-11390722D02*
X13760896Y-11381198D01*
X13760896Y-11381198D02*
X13741848Y-11371674D01*
X13741848Y-11371674D02*
X13703753Y-11371674D01*
X13703753Y-11371674D02*
X13684706Y-11381198D01*
X13684706Y-11381198D02*
X13675182Y-11390722D01*
X13675182Y-11390722D02*
X13665658Y-11409769D01*
X13856134Y-11295484D02*
X13856134Y-11333579D01*
X13932325Y-11295484D02*
X13932325Y-11333579D01*
X14227563Y-11571674D02*
X14218039Y-11562150D01*
X14218039Y-11562150D02*
X14198991Y-11533579D01*
X14198991Y-11533579D02*
X14189468Y-11514531D01*
X14189468Y-11514531D02*
X14179944Y-11485960D01*
X14179944Y-11485960D02*
X14170420Y-11438341D01*
X14170420Y-11438341D02*
X14170420Y-11400246D01*
X14170420Y-11400246D02*
X14179944Y-11352627D01*
X14179944Y-11352627D02*
X14189468Y-11324055D01*
X14189468Y-11324055D02*
X14198991Y-11305008D01*
X14198991Y-11305008D02*
X14218039Y-11276436D01*
X14218039Y-11276436D02*
X14227563Y-11266912D01*
X14294229Y-11314531D02*
X14303753Y-11305008D01*
X14303753Y-11305008D02*
X14322801Y-11295484D01*
X14322801Y-11295484D02*
X14370420Y-11295484D01*
X14370420Y-11295484D02*
X14389468Y-11305008D01*
X14389468Y-11305008D02*
X14398991Y-11314531D01*
X14398991Y-11314531D02*
X14408515Y-11333579D01*
X14408515Y-11333579D02*
X14408515Y-11352627D01*
X14408515Y-11352627D02*
X14398991Y-11381198D01*
X14398991Y-11381198D02*
X14284706Y-11495484D01*
X14284706Y-11495484D02*
X14408515Y-11495484D01*
X14646610Y-11495484D02*
X14646610Y-11295484D01*
X14732325Y-11495484D02*
X14732325Y-11390722D01*
X14732325Y-11390722D02*
X14722801Y-11371674D01*
X14722801Y-11371674D02*
X14703753Y-11362150D01*
X14703753Y-11362150D02*
X14675182Y-11362150D01*
X14675182Y-11362150D02*
X14656134Y-11371674D01*
X14656134Y-11371674D02*
X14646610Y-11381198D01*
X14856134Y-11495484D02*
X14837087Y-11485960D01*
X14837087Y-11485960D02*
X14827563Y-11476436D01*
X14827563Y-11476436D02*
X14818039Y-11457388D01*
X14818039Y-11457388D02*
X14818039Y-11400246D01*
X14818039Y-11400246D02*
X14827563Y-11381198D01*
X14827563Y-11381198D02*
X14837087Y-11371674D01*
X14837087Y-11371674D02*
X14856134Y-11362150D01*
X14856134Y-11362150D02*
X14884706Y-11362150D01*
X14884706Y-11362150D02*
X14903753Y-11371674D01*
X14903753Y-11371674D02*
X14913277Y-11381198D01*
X14913277Y-11381198D02*
X14922801Y-11400246D01*
X14922801Y-11400246D02*
X14922801Y-11457388D01*
X14922801Y-11457388D02*
X14913277Y-11476436D01*
X14913277Y-11476436D02*
X14903753Y-11485960D01*
X14903753Y-11485960D02*
X14884706Y-11495484D01*
X14884706Y-11495484D02*
X14856134Y-11495484D01*
X15037087Y-11495484D02*
X15018039Y-11485960D01*
X15018039Y-11485960D02*
X15008515Y-11466912D01*
X15008515Y-11466912D02*
X15008515Y-11295484D01*
X15189468Y-11485960D02*
X15170420Y-11495484D01*
X15170420Y-11495484D02*
X15132325Y-11495484D01*
X15132325Y-11495484D02*
X15113277Y-11485960D01*
X15113277Y-11485960D02*
X15103753Y-11466912D01*
X15103753Y-11466912D02*
X15103753Y-11390722D01*
X15103753Y-11390722D02*
X15113277Y-11371674D01*
X15113277Y-11371674D02*
X15132325Y-11362150D01*
X15132325Y-11362150D02*
X15170420Y-11362150D01*
X15170420Y-11362150D02*
X15189468Y-11371674D01*
X15189468Y-11371674D02*
X15198991Y-11390722D01*
X15198991Y-11390722D02*
X15198991Y-11409769D01*
X15198991Y-11409769D02*
X15103753Y-11428817D01*
X15275182Y-11485960D02*
X15294230Y-11495484D01*
X15294230Y-11495484D02*
X15332325Y-11495484D01*
X15332325Y-11495484D02*
X15351372Y-11485960D01*
X15351372Y-11485960D02*
X15360896Y-11466912D01*
X15360896Y-11466912D02*
X15360896Y-11457388D01*
X15360896Y-11457388D02*
X15351372Y-11438341D01*
X15351372Y-11438341D02*
X15332325Y-11428817D01*
X15332325Y-11428817D02*
X15303753Y-11428817D01*
X15303753Y-11428817D02*
X15284706Y-11419293D01*
X15284706Y-11419293D02*
X15275182Y-11400246D01*
X15275182Y-11400246D02*
X15275182Y-11390722D01*
X15275182Y-11390722D02*
X15284706Y-11371674D01*
X15284706Y-11371674D02*
X15303753Y-11362150D01*
X15303753Y-11362150D02*
X15332325Y-11362150D01*
X15332325Y-11362150D02*
X15351372Y-11371674D01*
X15427563Y-11571674D02*
X15437087Y-11562150D01*
X15437087Y-11562150D02*
X15456134Y-11533579D01*
X15456134Y-11533579D02*
X15465658Y-11514531D01*
X15465658Y-11514531D02*
X15475182Y-11485960D01*
X15475182Y-11485960D02*
X15484706Y-11438341D01*
X15484706Y-11438341D02*
X15484706Y-11400246D01*
X15484706Y-11400246D02*
X15475182Y-11352627D01*
X15475182Y-11352627D02*
X15465658Y-11324055D01*
X15465658Y-11324055D02*
X15456134Y-11305008D01*
X15456134Y-11305008D02*
X15437087Y-11276436D01*
X15437087Y-11276436D02*
X15427563Y-11266912D01*
D11*
X10612500Y-11628000D02*
X10612500Y-11708000D01*
X10572500Y-11668000D02*
X10652500Y-11668000D01*
D10*
X10951372Y-11559484D02*
X10970420Y-11559484D01*
X10970420Y-11559484D02*
X10989467Y-11569008D01*
X10989467Y-11569008D02*
X10998991Y-11578531D01*
X10998991Y-11578531D02*
X11008515Y-11597579D01*
X11008515Y-11597579D02*
X11018039Y-11635674D01*
X11018039Y-11635674D02*
X11018039Y-11683293D01*
X11018039Y-11683293D02*
X11008515Y-11721388D01*
X11008515Y-11721388D02*
X10998991Y-11740436D01*
X10998991Y-11740436D02*
X10989467Y-11749960D01*
X10989467Y-11749960D02*
X10970420Y-11759484D01*
X10970420Y-11759484D02*
X10951372Y-11759484D01*
X10951372Y-11759484D02*
X10932324Y-11749960D01*
X10932324Y-11749960D02*
X10922801Y-11740436D01*
X10922801Y-11740436D02*
X10913277Y-11721388D01*
X10913277Y-11721388D02*
X10903753Y-11683293D01*
X10903753Y-11683293D02*
X10903753Y-11635674D01*
X10903753Y-11635674D02*
X10913277Y-11597579D01*
X10913277Y-11597579D02*
X10922801Y-11578531D01*
X10922801Y-11578531D02*
X10932324Y-11569008D01*
X10932324Y-11569008D02*
X10951372Y-11559484D01*
X11103753Y-11740436D02*
X11113277Y-11749960D01*
X11113277Y-11749960D02*
X11103753Y-11759484D01*
X11103753Y-11759484D02*
X11094229Y-11749960D01*
X11094229Y-11749960D02*
X11103753Y-11740436D01*
X11103753Y-11740436D02*
X11103753Y-11759484D01*
X11227562Y-11645198D02*
X11208515Y-11635674D01*
X11208515Y-11635674D02*
X11198991Y-11626150D01*
X11198991Y-11626150D02*
X11189467Y-11607103D01*
X11189467Y-11607103D02*
X11189467Y-11597579D01*
X11189467Y-11597579D02*
X11198991Y-11578531D01*
X11198991Y-11578531D02*
X11208515Y-11569008D01*
X11208515Y-11569008D02*
X11227562Y-11559484D01*
X11227562Y-11559484D02*
X11265658Y-11559484D01*
X11265658Y-11559484D02*
X11284705Y-11569008D01*
X11284705Y-11569008D02*
X11294229Y-11578531D01*
X11294229Y-11578531D02*
X11303753Y-11597579D01*
X11303753Y-11597579D02*
X11303753Y-11607103D01*
X11303753Y-11607103D02*
X11294229Y-11626150D01*
X11294229Y-11626150D02*
X11284705Y-11635674D01*
X11284705Y-11635674D02*
X11265658Y-11645198D01*
X11265658Y-11645198D02*
X11227562Y-11645198D01*
X11227562Y-11645198D02*
X11208515Y-11654722D01*
X11208515Y-11654722D02*
X11198991Y-11664246D01*
X11198991Y-11664246D02*
X11189467Y-11683293D01*
X11189467Y-11683293D02*
X11189467Y-11721388D01*
X11189467Y-11721388D02*
X11198991Y-11740436D01*
X11198991Y-11740436D02*
X11208515Y-11749960D01*
X11208515Y-11749960D02*
X11227562Y-11759484D01*
X11227562Y-11759484D02*
X11265658Y-11759484D01*
X11265658Y-11759484D02*
X11284705Y-11749960D01*
X11284705Y-11749960D02*
X11294229Y-11740436D01*
X11294229Y-11740436D02*
X11303753Y-11721388D01*
X11303753Y-11721388D02*
X11303753Y-11683293D01*
X11303753Y-11683293D02*
X11294229Y-11664246D01*
X11294229Y-11664246D02*
X11284705Y-11654722D01*
X11284705Y-11654722D02*
X11265658Y-11645198D01*
X11427562Y-11559484D02*
X11446610Y-11559484D01*
X11446610Y-11559484D02*
X11465658Y-11569008D01*
X11465658Y-11569008D02*
X11475182Y-11578531D01*
X11475182Y-11578531D02*
X11484705Y-11597579D01*
X11484705Y-11597579D02*
X11494229Y-11635674D01*
X11494229Y-11635674D02*
X11494229Y-11683293D01*
X11494229Y-11683293D02*
X11484705Y-11721388D01*
X11484705Y-11721388D02*
X11475182Y-11740436D01*
X11475182Y-11740436D02*
X11465658Y-11749960D01*
X11465658Y-11749960D02*
X11446610Y-11759484D01*
X11446610Y-11759484D02*
X11427562Y-11759484D01*
X11427562Y-11759484D02*
X11408515Y-11749960D01*
X11408515Y-11749960D02*
X11398991Y-11740436D01*
X11398991Y-11740436D02*
X11389467Y-11721388D01*
X11389467Y-11721388D02*
X11379943Y-11683293D01*
X11379943Y-11683293D02*
X11379943Y-11635674D01*
X11379943Y-11635674D02*
X11389467Y-11597579D01*
X11389467Y-11597579D02*
X11398991Y-11578531D01*
X11398991Y-11578531D02*
X11408515Y-11569008D01*
X11408515Y-11569008D02*
X11427562Y-11559484D01*
X11618039Y-11559484D02*
X11637086Y-11559484D01*
X11637086Y-11559484D02*
X11656134Y-11569008D01*
X11656134Y-11569008D02*
X11665658Y-11578531D01*
X11665658Y-11578531D02*
X11675182Y-11597579D01*
X11675182Y-11597579D02*
X11684705Y-11635674D01*
X11684705Y-11635674D02*
X11684705Y-11683293D01*
X11684705Y-11683293D02*
X11675182Y-11721388D01*
X11675182Y-11721388D02*
X11665658Y-11740436D01*
X11665658Y-11740436D02*
X11656134Y-11749960D01*
X11656134Y-11749960D02*
X11637086Y-11759484D01*
X11637086Y-11759484D02*
X11618039Y-11759484D01*
X11618039Y-11759484D02*
X11598991Y-11749960D01*
X11598991Y-11749960D02*
X11589467Y-11740436D01*
X11589467Y-11740436D02*
X11579943Y-11721388D01*
X11579943Y-11721388D02*
X11570420Y-11683293D01*
X11570420Y-11683293D02*
X11570420Y-11635674D01*
X11570420Y-11635674D02*
X11579943Y-11597579D01*
X11579943Y-11597579D02*
X11589467Y-11578531D01*
X11589467Y-11578531D02*
X11598991Y-11569008D01*
X11598991Y-11569008D02*
X11618039Y-11559484D01*
X11770420Y-11759484D02*
X11770420Y-11626150D01*
X11770420Y-11645198D02*
X11779943Y-11635674D01*
X11779943Y-11635674D02*
X11798991Y-11626150D01*
X11798991Y-11626150D02*
X11827563Y-11626150D01*
X11827563Y-11626150D02*
X11846610Y-11635674D01*
X11846610Y-11635674D02*
X11856134Y-11654722D01*
X11856134Y-11654722D02*
X11856134Y-11759484D01*
X11856134Y-11654722D02*
X11865658Y-11635674D01*
X11865658Y-11635674D02*
X11884705Y-11626150D01*
X11884705Y-11626150D02*
X11913277Y-11626150D01*
X11913277Y-11626150D02*
X11932324Y-11635674D01*
X11932324Y-11635674D02*
X11941848Y-11654722D01*
X11941848Y-11654722D02*
X11941848Y-11759484D01*
X12037086Y-11759484D02*
X12037086Y-11626150D01*
X12037086Y-11645198D02*
X12046610Y-11635674D01*
X12046610Y-11635674D02*
X12065658Y-11626150D01*
X12065658Y-11626150D02*
X12094229Y-11626150D01*
X12094229Y-11626150D02*
X12113277Y-11635674D01*
X12113277Y-11635674D02*
X12122801Y-11654722D01*
X12122801Y-11654722D02*
X12122801Y-11759484D01*
X12122801Y-11654722D02*
X12132324Y-11635674D01*
X12132324Y-11635674D02*
X12151372Y-11626150D01*
X12151372Y-11626150D02*
X12179943Y-11626150D01*
X12179943Y-11626150D02*
X12198991Y-11635674D01*
X12198991Y-11635674D02*
X12208515Y-11654722D01*
X12208515Y-11654722D02*
X12208515Y-11759484D01*
X12598991Y-11549960D02*
X12427563Y-11807103D01*
X12856134Y-11559484D02*
X12875182Y-11559484D01*
X12875182Y-11559484D02*
X12894229Y-11569008D01*
X12894229Y-11569008D02*
X12903753Y-11578531D01*
X12903753Y-11578531D02*
X12913277Y-11597579D01*
X12913277Y-11597579D02*
X12922801Y-11635674D01*
X12922801Y-11635674D02*
X12922801Y-11683293D01*
X12922801Y-11683293D02*
X12913277Y-11721388D01*
X12913277Y-11721388D02*
X12903753Y-11740436D01*
X12903753Y-11740436D02*
X12894229Y-11749960D01*
X12894229Y-11749960D02*
X12875182Y-11759484D01*
X12875182Y-11759484D02*
X12856134Y-11759484D01*
X12856134Y-11759484D02*
X12837086Y-11749960D01*
X12837086Y-11749960D02*
X12827563Y-11740436D01*
X12827563Y-11740436D02*
X12818039Y-11721388D01*
X12818039Y-11721388D02*
X12808515Y-11683293D01*
X12808515Y-11683293D02*
X12808515Y-11635674D01*
X12808515Y-11635674D02*
X12818039Y-11597579D01*
X12818039Y-11597579D02*
X12827563Y-11578531D01*
X12827563Y-11578531D02*
X12837086Y-11569008D01*
X12837086Y-11569008D02*
X12856134Y-11559484D01*
X13008515Y-11740436D02*
X13018039Y-11749960D01*
X13018039Y-11749960D02*
X13008515Y-11759484D01*
X13008515Y-11759484D02*
X12998991Y-11749960D01*
X12998991Y-11749960D02*
X13008515Y-11740436D01*
X13008515Y-11740436D02*
X13008515Y-11759484D01*
X13141848Y-11559484D02*
X13160896Y-11559484D01*
X13160896Y-11559484D02*
X13179944Y-11569008D01*
X13179944Y-11569008D02*
X13189467Y-11578531D01*
X13189467Y-11578531D02*
X13198991Y-11597579D01*
X13198991Y-11597579D02*
X13208515Y-11635674D01*
X13208515Y-11635674D02*
X13208515Y-11683293D01*
X13208515Y-11683293D02*
X13198991Y-11721388D01*
X13198991Y-11721388D02*
X13189467Y-11740436D01*
X13189467Y-11740436D02*
X13179944Y-11749960D01*
X13179944Y-11749960D02*
X13160896Y-11759484D01*
X13160896Y-11759484D02*
X13141848Y-11759484D01*
X13141848Y-11759484D02*
X13122801Y-11749960D01*
X13122801Y-11749960D02*
X13113277Y-11740436D01*
X13113277Y-11740436D02*
X13103753Y-11721388D01*
X13103753Y-11721388D02*
X13094229Y-11683293D01*
X13094229Y-11683293D02*
X13094229Y-11635674D01*
X13094229Y-11635674D02*
X13103753Y-11597579D01*
X13103753Y-11597579D02*
X13113277Y-11578531D01*
X13113277Y-11578531D02*
X13122801Y-11569008D01*
X13122801Y-11569008D02*
X13141848Y-11559484D01*
X13275182Y-11559484D02*
X13398991Y-11559484D01*
X13398991Y-11559484D02*
X13332325Y-11635674D01*
X13332325Y-11635674D02*
X13360896Y-11635674D01*
X13360896Y-11635674D02*
X13379944Y-11645198D01*
X13379944Y-11645198D02*
X13389467Y-11654722D01*
X13389467Y-11654722D02*
X13398991Y-11673769D01*
X13398991Y-11673769D02*
X13398991Y-11721388D01*
X13398991Y-11721388D02*
X13389467Y-11740436D01*
X13389467Y-11740436D02*
X13379944Y-11749960D01*
X13379944Y-11749960D02*
X13360896Y-11759484D01*
X13360896Y-11759484D02*
X13303753Y-11759484D01*
X13303753Y-11759484D02*
X13284706Y-11749960D01*
X13284706Y-11749960D02*
X13275182Y-11740436D01*
X13589467Y-11759484D02*
X13475182Y-11759484D01*
X13532325Y-11759484D02*
X13532325Y-11559484D01*
X13532325Y-11559484D02*
X13513277Y-11588055D01*
X13513277Y-11588055D02*
X13494229Y-11607103D01*
X13494229Y-11607103D02*
X13475182Y-11616627D01*
X13770420Y-11559484D02*
X13675182Y-11559484D01*
X13675182Y-11559484D02*
X13665658Y-11654722D01*
X13665658Y-11654722D02*
X13675182Y-11645198D01*
X13675182Y-11645198D02*
X13694229Y-11635674D01*
X13694229Y-11635674D02*
X13741848Y-11635674D01*
X13741848Y-11635674D02*
X13760896Y-11645198D01*
X13760896Y-11645198D02*
X13770420Y-11654722D01*
X13770420Y-11654722D02*
X13779944Y-11673769D01*
X13779944Y-11673769D02*
X13779944Y-11721388D01*
X13779944Y-11721388D02*
X13770420Y-11740436D01*
X13770420Y-11740436D02*
X13760896Y-11749960D01*
X13760896Y-11749960D02*
X13741848Y-11759484D01*
X13741848Y-11759484D02*
X13694229Y-11759484D01*
X13694229Y-11759484D02*
X13675182Y-11749960D01*
X13675182Y-11749960D02*
X13665658Y-11740436D01*
X13856134Y-11559484D02*
X13856134Y-11597579D01*
X13932325Y-11559484D02*
X13932325Y-11597579D01*
X14227563Y-11835674D02*
X14218039Y-11826150D01*
X14218039Y-11826150D02*
X14198991Y-11797579D01*
X14198991Y-11797579D02*
X14189468Y-11778531D01*
X14189468Y-11778531D02*
X14179944Y-11749960D01*
X14179944Y-11749960D02*
X14170420Y-11702341D01*
X14170420Y-11702341D02*
X14170420Y-11664246D01*
X14170420Y-11664246D02*
X14179944Y-11616627D01*
X14179944Y-11616627D02*
X14189468Y-11588055D01*
X14189468Y-11588055D02*
X14198991Y-11569008D01*
X14198991Y-11569008D02*
X14218039Y-11540436D01*
X14218039Y-11540436D02*
X14227563Y-11530912D01*
X14398991Y-11559484D02*
X14303753Y-11559484D01*
X14303753Y-11559484D02*
X14294229Y-11654722D01*
X14294229Y-11654722D02*
X14303753Y-11645198D01*
X14303753Y-11645198D02*
X14322801Y-11635674D01*
X14322801Y-11635674D02*
X14370420Y-11635674D01*
X14370420Y-11635674D02*
X14389468Y-11645198D01*
X14389468Y-11645198D02*
X14398991Y-11654722D01*
X14398991Y-11654722D02*
X14408515Y-11673769D01*
X14408515Y-11673769D02*
X14408515Y-11721388D01*
X14408515Y-11721388D02*
X14398991Y-11740436D01*
X14398991Y-11740436D02*
X14389468Y-11749960D01*
X14389468Y-11749960D02*
X14370420Y-11759484D01*
X14370420Y-11759484D02*
X14322801Y-11759484D01*
X14322801Y-11759484D02*
X14303753Y-11749960D01*
X14303753Y-11749960D02*
X14294229Y-11740436D01*
X14646610Y-11759484D02*
X14646610Y-11559484D01*
X14732325Y-11759484D02*
X14732325Y-11654722D01*
X14732325Y-11654722D02*
X14722801Y-11635674D01*
X14722801Y-11635674D02*
X14703753Y-11626150D01*
X14703753Y-11626150D02*
X14675182Y-11626150D01*
X14675182Y-11626150D02*
X14656134Y-11635674D01*
X14656134Y-11635674D02*
X14646610Y-11645198D01*
X14856134Y-11759484D02*
X14837087Y-11749960D01*
X14837087Y-11749960D02*
X14827563Y-11740436D01*
X14827563Y-11740436D02*
X14818039Y-11721388D01*
X14818039Y-11721388D02*
X14818039Y-11664246D01*
X14818039Y-11664246D02*
X14827563Y-11645198D01*
X14827563Y-11645198D02*
X14837087Y-11635674D01*
X14837087Y-11635674D02*
X14856134Y-11626150D01*
X14856134Y-11626150D02*
X14884706Y-11626150D01*
X14884706Y-11626150D02*
X14903753Y-11635674D01*
X14903753Y-11635674D02*
X14913277Y-11645198D01*
X14913277Y-11645198D02*
X14922801Y-11664246D01*
X14922801Y-11664246D02*
X14922801Y-11721388D01*
X14922801Y-11721388D02*
X14913277Y-11740436D01*
X14913277Y-11740436D02*
X14903753Y-11749960D01*
X14903753Y-11749960D02*
X14884706Y-11759484D01*
X14884706Y-11759484D02*
X14856134Y-11759484D01*
X15037087Y-11759484D02*
X15018039Y-11749960D01*
X15018039Y-11749960D02*
X15008515Y-11730912D01*
X15008515Y-11730912D02*
X15008515Y-11559484D01*
X15189468Y-11749960D02*
X15170420Y-11759484D01*
X15170420Y-11759484D02*
X15132325Y-11759484D01*
X15132325Y-11759484D02*
X15113277Y-11749960D01*
X15113277Y-11749960D02*
X15103753Y-11730912D01*
X15103753Y-11730912D02*
X15103753Y-11654722D01*
X15103753Y-11654722D02*
X15113277Y-11635674D01*
X15113277Y-11635674D02*
X15132325Y-11626150D01*
X15132325Y-11626150D02*
X15170420Y-11626150D01*
X15170420Y-11626150D02*
X15189468Y-11635674D01*
X15189468Y-11635674D02*
X15198991Y-11654722D01*
X15198991Y-11654722D02*
X15198991Y-11673769D01*
X15198991Y-11673769D02*
X15103753Y-11692817D01*
X15275182Y-11749960D02*
X15294230Y-11759484D01*
X15294230Y-11759484D02*
X15332325Y-11759484D01*
X15332325Y-11759484D02*
X15351372Y-11749960D01*
X15351372Y-11749960D02*
X15360896Y-11730912D01*
X15360896Y-11730912D02*
X15360896Y-11721388D01*
X15360896Y-11721388D02*
X15351372Y-11702341D01*
X15351372Y-11702341D02*
X15332325Y-11692817D01*
X15332325Y-11692817D02*
X15303753Y-11692817D01*
X15303753Y-11692817D02*
X15284706Y-11683293D01*
X15284706Y-11683293D02*
X15275182Y-11664246D01*
X15275182Y-11664246D02*
X15275182Y-11654722D01*
X15275182Y-11654722D02*
X15284706Y-11635674D01*
X15284706Y-11635674D02*
X15303753Y-11626150D01*
X15303753Y-11626150D02*
X15332325Y-11626150D01*
X15332325Y-11626150D02*
X15351372Y-11635674D01*
X15427563Y-11835674D02*
X15437087Y-11826150D01*
X15437087Y-11826150D02*
X15456134Y-11797579D01*
X15456134Y-11797579D02*
X15465658Y-11778531D01*
X15465658Y-11778531D02*
X15475182Y-11749960D01*
X15475182Y-11749960D02*
X15484706Y-11702341D01*
X15484706Y-11702341D02*
X15484706Y-11664246D01*
X15484706Y-11664246D02*
X15475182Y-11616627D01*
X15475182Y-11616627D02*
X15465658Y-11588055D01*
X15465658Y-11588055D02*
X15456134Y-11569008D01*
X15456134Y-11569008D02*
X15437087Y-11540436D01*
X15437087Y-11540436D02*
X15427563Y-11530912D01*
D12*
X10636391Y-11970891D02*
X10636391Y-11893109D01*
X10558609Y-11893109D01*
X10558609Y-11970891D01*
X10636391Y-11970891D01*
D10*
X11018039Y-12023484D02*
X10903753Y-12023484D01*
X10960896Y-12023484D02*
X10960896Y-11823484D01*
X10960896Y-11823484D02*
X10941848Y-11852055D01*
X10941848Y-11852055D02*
X10922801Y-11871103D01*
X10922801Y-11871103D02*
X10903753Y-11880627D01*
X11103753Y-12004436D02*
X11113277Y-12013960D01*
X11113277Y-12013960D02*
X11103753Y-12023484D01*
X11103753Y-12023484D02*
X11094229Y-12013960D01*
X11094229Y-12013960D02*
X11103753Y-12004436D01*
X11103753Y-12004436D02*
X11103753Y-12023484D01*
X11303753Y-12023484D02*
X11189467Y-12023484D01*
X11246610Y-12023484D02*
X11246610Y-11823484D01*
X11246610Y-11823484D02*
X11227562Y-11852055D01*
X11227562Y-11852055D02*
X11208515Y-11871103D01*
X11208515Y-11871103D02*
X11189467Y-11880627D01*
X11427562Y-11823484D02*
X11446610Y-11823484D01*
X11446610Y-11823484D02*
X11465658Y-11833008D01*
X11465658Y-11833008D02*
X11475182Y-11842531D01*
X11475182Y-11842531D02*
X11484705Y-11861579D01*
X11484705Y-11861579D02*
X11494229Y-11899674D01*
X11494229Y-11899674D02*
X11494229Y-11947293D01*
X11494229Y-11947293D02*
X11484705Y-11985388D01*
X11484705Y-11985388D02*
X11475182Y-12004436D01*
X11475182Y-12004436D02*
X11465658Y-12013960D01*
X11465658Y-12013960D02*
X11446610Y-12023484D01*
X11446610Y-12023484D02*
X11427562Y-12023484D01*
X11427562Y-12023484D02*
X11408515Y-12013960D01*
X11408515Y-12013960D02*
X11398991Y-12004436D01*
X11398991Y-12004436D02*
X11389467Y-11985388D01*
X11389467Y-11985388D02*
X11379943Y-11947293D01*
X11379943Y-11947293D02*
X11379943Y-11899674D01*
X11379943Y-11899674D02*
X11389467Y-11861579D01*
X11389467Y-11861579D02*
X11398991Y-11842531D01*
X11398991Y-11842531D02*
X11408515Y-11833008D01*
X11408515Y-11833008D02*
X11427562Y-11823484D01*
X11618039Y-11823484D02*
X11637086Y-11823484D01*
X11637086Y-11823484D02*
X11656134Y-11833008D01*
X11656134Y-11833008D02*
X11665658Y-11842531D01*
X11665658Y-11842531D02*
X11675182Y-11861579D01*
X11675182Y-11861579D02*
X11684705Y-11899674D01*
X11684705Y-11899674D02*
X11684705Y-11947293D01*
X11684705Y-11947293D02*
X11675182Y-11985388D01*
X11675182Y-11985388D02*
X11665658Y-12004436D01*
X11665658Y-12004436D02*
X11656134Y-12013960D01*
X11656134Y-12013960D02*
X11637086Y-12023484D01*
X11637086Y-12023484D02*
X11618039Y-12023484D01*
X11618039Y-12023484D02*
X11598991Y-12013960D01*
X11598991Y-12013960D02*
X11589467Y-12004436D01*
X11589467Y-12004436D02*
X11579943Y-11985388D01*
X11579943Y-11985388D02*
X11570420Y-11947293D01*
X11570420Y-11947293D02*
X11570420Y-11899674D01*
X11570420Y-11899674D02*
X11579943Y-11861579D01*
X11579943Y-11861579D02*
X11589467Y-11842531D01*
X11589467Y-11842531D02*
X11598991Y-11833008D01*
X11598991Y-11833008D02*
X11618039Y-11823484D01*
X11770420Y-12023484D02*
X11770420Y-11890150D01*
X11770420Y-11909198D02*
X11779943Y-11899674D01*
X11779943Y-11899674D02*
X11798991Y-11890150D01*
X11798991Y-11890150D02*
X11827563Y-11890150D01*
X11827563Y-11890150D02*
X11846610Y-11899674D01*
X11846610Y-11899674D02*
X11856134Y-11918722D01*
X11856134Y-11918722D02*
X11856134Y-12023484D01*
X11856134Y-11918722D02*
X11865658Y-11899674D01*
X11865658Y-11899674D02*
X11884705Y-11890150D01*
X11884705Y-11890150D02*
X11913277Y-11890150D01*
X11913277Y-11890150D02*
X11932324Y-11899674D01*
X11932324Y-11899674D02*
X11941848Y-11918722D01*
X11941848Y-11918722D02*
X11941848Y-12023484D01*
X12037086Y-12023484D02*
X12037086Y-11890150D01*
X12037086Y-11909198D02*
X12046610Y-11899674D01*
X12046610Y-11899674D02*
X12065658Y-11890150D01*
X12065658Y-11890150D02*
X12094229Y-11890150D01*
X12094229Y-11890150D02*
X12113277Y-11899674D01*
X12113277Y-11899674D02*
X12122801Y-11918722D01*
X12122801Y-11918722D02*
X12122801Y-12023484D01*
X12122801Y-11918722D02*
X12132324Y-11899674D01*
X12132324Y-11899674D02*
X12151372Y-11890150D01*
X12151372Y-11890150D02*
X12179943Y-11890150D01*
X12179943Y-11890150D02*
X12198991Y-11899674D01*
X12198991Y-11899674D02*
X12208515Y-11918722D01*
X12208515Y-11918722D02*
X12208515Y-12023484D01*
X12598991Y-11813960D02*
X12427563Y-12071103D01*
X12856134Y-11823484D02*
X12875182Y-11823484D01*
X12875182Y-11823484D02*
X12894229Y-11833008D01*
X12894229Y-11833008D02*
X12903753Y-11842531D01*
X12903753Y-11842531D02*
X12913277Y-11861579D01*
X12913277Y-11861579D02*
X12922801Y-11899674D01*
X12922801Y-11899674D02*
X12922801Y-11947293D01*
X12922801Y-11947293D02*
X12913277Y-11985388D01*
X12913277Y-11985388D02*
X12903753Y-12004436D01*
X12903753Y-12004436D02*
X12894229Y-12013960D01*
X12894229Y-12013960D02*
X12875182Y-12023484D01*
X12875182Y-12023484D02*
X12856134Y-12023484D01*
X12856134Y-12023484D02*
X12837086Y-12013960D01*
X12837086Y-12013960D02*
X12827563Y-12004436D01*
X12827563Y-12004436D02*
X12818039Y-11985388D01*
X12818039Y-11985388D02*
X12808515Y-11947293D01*
X12808515Y-11947293D02*
X12808515Y-11899674D01*
X12808515Y-11899674D02*
X12818039Y-11861579D01*
X12818039Y-11861579D02*
X12827563Y-11842531D01*
X12827563Y-11842531D02*
X12837086Y-11833008D01*
X12837086Y-11833008D02*
X12856134Y-11823484D01*
X13008515Y-12004436D02*
X13018039Y-12013960D01*
X13018039Y-12013960D02*
X13008515Y-12023484D01*
X13008515Y-12023484D02*
X12998991Y-12013960D01*
X12998991Y-12013960D02*
X13008515Y-12004436D01*
X13008515Y-12004436D02*
X13008515Y-12023484D01*
X13141848Y-11823484D02*
X13160896Y-11823484D01*
X13160896Y-11823484D02*
X13179944Y-11833008D01*
X13179944Y-11833008D02*
X13189467Y-11842531D01*
X13189467Y-11842531D02*
X13198991Y-11861579D01*
X13198991Y-11861579D02*
X13208515Y-11899674D01*
X13208515Y-11899674D02*
X13208515Y-11947293D01*
X13208515Y-11947293D02*
X13198991Y-11985388D01*
X13198991Y-11985388D02*
X13189467Y-12004436D01*
X13189467Y-12004436D02*
X13179944Y-12013960D01*
X13179944Y-12013960D02*
X13160896Y-12023484D01*
X13160896Y-12023484D02*
X13141848Y-12023484D01*
X13141848Y-12023484D02*
X13122801Y-12013960D01*
X13122801Y-12013960D02*
X13113277Y-12004436D01*
X13113277Y-12004436D02*
X13103753Y-11985388D01*
X13103753Y-11985388D02*
X13094229Y-11947293D01*
X13094229Y-11947293D02*
X13094229Y-11899674D01*
X13094229Y-11899674D02*
X13103753Y-11861579D01*
X13103753Y-11861579D02*
X13113277Y-11842531D01*
X13113277Y-11842531D02*
X13122801Y-11833008D01*
X13122801Y-11833008D02*
X13141848Y-11823484D01*
X13379944Y-11890150D02*
X13379944Y-12023484D01*
X13332325Y-11813960D02*
X13284706Y-11956817D01*
X13284706Y-11956817D02*
X13408515Y-11956817D01*
X13465658Y-11823484D02*
X13589467Y-11823484D01*
X13589467Y-11823484D02*
X13522801Y-11899674D01*
X13522801Y-11899674D02*
X13551372Y-11899674D01*
X13551372Y-11899674D02*
X13570420Y-11909198D01*
X13570420Y-11909198D02*
X13579944Y-11918722D01*
X13579944Y-11918722D02*
X13589467Y-11937769D01*
X13589467Y-11937769D02*
X13589467Y-11985388D01*
X13589467Y-11985388D02*
X13579944Y-12004436D01*
X13579944Y-12004436D02*
X13570420Y-12013960D01*
X13570420Y-12013960D02*
X13551372Y-12023484D01*
X13551372Y-12023484D02*
X13494229Y-12023484D01*
X13494229Y-12023484D02*
X13475182Y-12013960D01*
X13475182Y-12013960D02*
X13465658Y-12004436D01*
X13656134Y-11823484D02*
X13779944Y-11823484D01*
X13779944Y-11823484D02*
X13713277Y-11899674D01*
X13713277Y-11899674D02*
X13741848Y-11899674D01*
X13741848Y-11899674D02*
X13760896Y-11909198D01*
X13760896Y-11909198D02*
X13770420Y-11918722D01*
X13770420Y-11918722D02*
X13779944Y-11937769D01*
X13779944Y-11937769D02*
X13779944Y-11985388D01*
X13779944Y-11985388D02*
X13770420Y-12004436D01*
X13770420Y-12004436D02*
X13760896Y-12013960D01*
X13760896Y-12013960D02*
X13741848Y-12023484D01*
X13741848Y-12023484D02*
X13684706Y-12023484D01*
X13684706Y-12023484D02*
X13665658Y-12013960D01*
X13665658Y-12013960D02*
X13656134Y-12004436D01*
X13856134Y-11823484D02*
X13856134Y-11861579D01*
X13932325Y-11823484D02*
X13932325Y-11861579D01*
X14227563Y-12099674D02*
X14218039Y-12090150D01*
X14218039Y-12090150D02*
X14198991Y-12061579D01*
X14198991Y-12061579D02*
X14189468Y-12042531D01*
X14189468Y-12042531D02*
X14179944Y-12013960D01*
X14179944Y-12013960D02*
X14170420Y-11966341D01*
X14170420Y-11966341D02*
X14170420Y-11928246D01*
X14170420Y-11928246D02*
X14179944Y-11880627D01*
X14179944Y-11880627D02*
X14189468Y-11852055D01*
X14189468Y-11852055D02*
X14198991Y-11833008D01*
X14198991Y-11833008D02*
X14218039Y-11804436D01*
X14218039Y-11804436D02*
X14227563Y-11794912D01*
X14389468Y-11890150D02*
X14389468Y-12023484D01*
X14341848Y-11813960D02*
X14294229Y-11956817D01*
X14294229Y-11956817D02*
X14418039Y-11956817D01*
X14646610Y-12023484D02*
X14646610Y-11823484D01*
X14732325Y-12023484D02*
X14732325Y-11918722D01*
X14732325Y-11918722D02*
X14722801Y-11899674D01*
X14722801Y-11899674D02*
X14703753Y-11890150D01*
X14703753Y-11890150D02*
X14675182Y-11890150D01*
X14675182Y-11890150D02*
X14656134Y-11899674D01*
X14656134Y-11899674D02*
X14646610Y-11909198D01*
X14856134Y-12023484D02*
X14837087Y-12013960D01*
X14837087Y-12013960D02*
X14827563Y-12004436D01*
X14827563Y-12004436D02*
X14818039Y-11985388D01*
X14818039Y-11985388D02*
X14818039Y-11928246D01*
X14818039Y-11928246D02*
X14827563Y-11909198D01*
X14827563Y-11909198D02*
X14837087Y-11899674D01*
X14837087Y-11899674D02*
X14856134Y-11890150D01*
X14856134Y-11890150D02*
X14884706Y-11890150D01*
X14884706Y-11890150D02*
X14903753Y-11899674D01*
X14903753Y-11899674D02*
X14913277Y-11909198D01*
X14913277Y-11909198D02*
X14922801Y-11928246D01*
X14922801Y-11928246D02*
X14922801Y-11985388D01*
X14922801Y-11985388D02*
X14913277Y-12004436D01*
X14913277Y-12004436D02*
X14903753Y-12013960D01*
X14903753Y-12013960D02*
X14884706Y-12023484D01*
X14884706Y-12023484D02*
X14856134Y-12023484D01*
X15037087Y-12023484D02*
X15018039Y-12013960D01*
X15018039Y-12013960D02*
X15008515Y-11994912D01*
X15008515Y-11994912D02*
X15008515Y-11823484D01*
X15189468Y-12013960D02*
X15170420Y-12023484D01*
X15170420Y-12023484D02*
X15132325Y-12023484D01*
X15132325Y-12023484D02*
X15113277Y-12013960D01*
X15113277Y-12013960D02*
X15103753Y-11994912D01*
X15103753Y-11994912D02*
X15103753Y-11918722D01*
X15103753Y-11918722D02*
X15113277Y-11899674D01*
X15113277Y-11899674D02*
X15132325Y-11890150D01*
X15132325Y-11890150D02*
X15170420Y-11890150D01*
X15170420Y-11890150D02*
X15189468Y-11899674D01*
X15189468Y-11899674D02*
X15198991Y-11918722D01*
X15198991Y-11918722D02*
X15198991Y-11937769D01*
X15198991Y-11937769D02*
X15103753Y-11956817D01*
X15275182Y-12013960D02*
X15294230Y-12023484D01*
X15294230Y-12023484D02*
X15332325Y-12023484D01*
X15332325Y-12023484D02*
X15351372Y-12013960D01*
X15351372Y-12013960D02*
X15360896Y-11994912D01*
X15360896Y-11994912D02*
X15360896Y-11985388D01*
X15360896Y-11985388D02*
X15351372Y-11966341D01*
X15351372Y-11966341D02*
X15332325Y-11956817D01*
X15332325Y-11956817D02*
X15303753Y-11956817D01*
X15303753Y-11956817D02*
X15284706Y-11947293D01*
X15284706Y-11947293D02*
X15275182Y-11928246D01*
X15275182Y-11928246D02*
X15275182Y-11918722D01*
X15275182Y-11918722D02*
X15284706Y-11899674D01*
X15284706Y-11899674D02*
X15303753Y-11890150D01*
X15303753Y-11890150D02*
X15332325Y-11890150D01*
X15332325Y-11890150D02*
X15351372Y-11899674D01*
X15427563Y-12099674D02*
X15437087Y-12090150D01*
X15437087Y-12090150D02*
X15456134Y-12061579D01*
X15456134Y-12061579D02*
X15465658Y-12042531D01*
X15465658Y-12042531D02*
X15475182Y-12013960D01*
X15475182Y-12013960D02*
X15484706Y-11966341D01*
X15484706Y-11966341D02*
X15484706Y-11928246D01*
X15484706Y-11928246D02*
X15475182Y-11880627D01*
X15475182Y-11880627D02*
X15465658Y-11852055D01*
X15465658Y-11852055D02*
X15456134Y-11833008D01*
X15456134Y-11833008D02*
X15437087Y-11804436D01*
X15437087Y-11804436D02*
X15427563Y-11794912D01*
D13*
X10587500Y-12261000D02*
X10652500Y-12196000D01*
X10587500Y-12131000D01*
X10522500Y-12196000D01*
X10587500Y-12261000D01*
D10*
X11018039Y-12287484D02*
X10903753Y-12287484D01*
X10960896Y-12287484D02*
X10960896Y-12087484D01*
X10960896Y-12087484D02*
X10941848Y-12116055D01*
X10941848Y-12116055D02*
X10922801Y-12135103D01*
X10922801Y-12135103D02*
X10903753Y-12144627D01*
X11103753Y-12268436D02*
X11113277Y-12277960D01*
X11113277Y-12277960D02*
X11103753Y-12287484D01*
X11103753Y-12287484D02*
X11094229Y-12277960D01*
X11094229Y-12277960D02*
X11103753Y-12268436D01*
X11103753Y-12268436D02*
X11103753Y-12287484D01*
X11179944Y-12087484D02*
X11303753Y-12087484D01*
X11303753Y-12087484D02*
X11237086Y-12163674D01*
X11237086Y-12163674D02*
X11265658Y-12163674D01*
X11265658Y-12163674D02*
X11284705Y-12173198D01*
X11284705Y-12173198D02*
X11294229Y-12182722D01*
X11294229Y-12182722D02*
X11303753Y-12201769D01*
X11303753Y-12201769D02*
X11303753Y-12249388D01*
X11303753Y-12249388D02*
X11294229Y-12268436D01*
X11294229Y-12268436D02*
X11284705Y-12277960D01*
X11284705Y-12277960D02*
X11265658Y-12287484D01*
X11265658Y-12287484D02*
X11208515Y-12287484D01*
X11208515Y-12287484D02*
X11189467Y-12277960D01*
X11189467Y-12277960D02*
X11179944Y-12268436D01*
X11427562Y-12087484D02*
X11446610Y-12087484D01*
X11446610Y-12087484D02*
X11465658Y-12097008D01*
X11465658Y-12097008D02*
X11475182Y-12106531D01*
X11475182Y-12106531D02*
X11484705Y-12125579D01*
X11484705Y-12125579D02*
X11494229Y-12163674D01*
X11494229Y-12163674D02*
X11494229Y-12211293D01*
X11494229Y-12211293D02*
X11484705Y-12249388D01*
X11484705Y-12249388D02*
X11475182Y-12268436D01*
X11475182Y-12268436D02*
X11465658Y-12277960D01*
X11465658Y-12277960D02*
X11446610Y-12287484D01*
X11446610Y-12287484D02*
X11427562Y-12287484D01*
X11427562Y-12287484D02*
X11408515Y-12277960D01*
X11408515Y-12277960D02*
X11398991Y-12268436D01*
X11398991Y-12268436D02*
X11389467Y-12249388D01*
X11389467Y-12249388D02*
X11379943Y-12211293D01*
X11379943Y-12211293D02*
X11379943Y-12163674D01*
X11379943Y-12163674D02*
X11389467Y-12125579D01*
X11389467Y-12125579D02*
X11398991Y-12106531D01*
X11398991Y-12106531D02*
X11408515Y-12097008D01*
X11408515Y-12097008D02*
X11427562Y-12087484D01*
X11618039Y-12087484D02*
X11637086Y-12087484D01*
X11637086Y-12087484D02*
X11656134Y-12097008D01*
X11656134Y-12097008D02*
X11665658Y-12106531D01*
X11665658Y-12106531D02*
X11675182Y-12125579D01*
X11675182Y-12125579D02*
X11684705Y-12163674D01*
X11684705Y-12163674D02*
X11684705Y-12211293D01*
X11684705Y-12211293D02*
X11675182Y-12249388D01*
X11675182Y-12249388D02*
X11665658Y-12268436D01*
X11665658Y-12268436D02*
X11656134Y-12277960D01*
X11656134Y-12277960D02*
X11637086Y-12287484D01*
X11637086Y-12287484D02*
X11618039Y-12287484D01*
X11618039Y-12287484D02*
X11598991Y-12277960D01*
X11598991Y-12277960D02*
X11589467Y-12268436D01*
X11589467Y-12268436D02*
X11579943Y-12249388D01*
X11579943Y-12249388D02*
X11570420Y-12211293D01*
X11570420Y-12211293D02*
X11570420Y-12163674D01*
X11570420Y-12163674D02*
X11579943Y-12125579D01*
X11579943Y-12125579D02*
X11589467Y-12106531D01*
X11589467Y-12106531D02*
X11598991Y-12097008D01*
X11598991Y-12097008D02*
X11618039Y-12087484D01*
X11770420Y-12287484D02*
X11770420Y-12154150D01*
X11770420Y-12173198D02*
X11779943Y-12163674D01*
X11779943Y-12163674D02*
X11798991Y-12154150D01*
X11798991Y-12154150D02*
X11827563Y-12154150D01*
X11827563Y-12154150D02*
X11846610Y-12163674D01*
X11846610Y-12163674D02*
X11856134Y-12182722D01*
X11856134Y-12182722D02*
X11856134Y-12287484D01*
X11856134Y-12182722D02*
X11865658Y-12163674D01*
X11865658Y-12163674D02*
X11884705Y-12154150D01*
X11884705Y-12154150D02*
X11913277Y-12154150D01*
X11913277Y-12154150D02*
X11932324Y-12163674D01*
X11932324Y-12163674D02*
X11941848Y-12182722D01*
X11941848Y-12182722D02*
X11941848Y-12287484D01*
X12037086Y-12287484D02*
X12037086Y-12154150D01*
X12037086Y-12173198D02*
X12046610Y-12163674D01*
X12046610Y-12163674D02*
X12065658Y-12154150D01*
X12065658Y-12154150D02*
X12094229Y-12154150D01*
X12094229Y-12154150D02*
X12113277Y-12163674D01*
X12113277Y-12163674D02*
X12122801Y-12182722D01*
X12122801Y-12182722D02*
X12122801Y-12287484D01*
X12122801Y-12182722D02*
X12132324Y-12163674D01*
X12132324Y-12163674D02*
X12151372Y-12154150D01*
X12151372Y-12154150D02*
X12179943Y-12154150D01*
X12179943Y-12154150D02*
X12198991Y-12163674D01*
X12198991Y-12163674D02*
X12208515Y-12182722D01*
X12208515Y-12182722D02*
X12208515Y-12287484D01*
X12598991Y-12077960D02*
X12427563Y-12335103D01*
X12856134Y-12087484D02*
X12875182Y-12087484D01*
X12875182Y-12087484D02*
X12894229Y-12097008D01*
X12894229Y-12097008D02*
X12903753Y-12106531D01*
X12903753Y-12106531D02*
X12913277Y-12125579D01*
X12913277Y-12125579D02*
X12922801Y-12163674D01*
X12922801Y-12163674D02*
X12922801Y-12211293D01*
X12922801Y-12211293D02*
X12913277Y-12249388D01*
X12913277Y-12249388D02*
X12903753Y-12268436D01*
X12903753Y-12268436D02*
X12894229Y-12277960D01*
X12894229Y-12277960D02*
X12875182Y-12287484D01*
X12875182Y-12287484D02*
X12856134Y-12287484D01*
X12856134Y-12287484D02*
X12837086Y-12277960D01*
X12837086Y-12277960D02*
X12827563Y-12268436D01*
X12827563Y-12268436D02*
X12818039Y-12249388D01*
X12818039Y-12249388D02*
X12808515Y-12211293D01*
X12808515Y-12211293D02*
X12808515Y-12163674D01*
X12808515Y-12163674D02*
X12818039Y-12125579D01*
X12818039Y-12125579D02*
X12827563Y-12106531D01*
X12827563Y-12106531D02*
X12837086Y-12097008D01*
X12837086Y-12097008D02*
X12856134Y-12087484D01*
X13008515Y-12268436D02*
X13018039Y-12277960D01*
X13018039Y-12277960D02*
X13008515Y-12287484D01*
X13008515Y-12287484D02*
X12998991Y-12277960D01*
X12998991Y-12277960D02*
X13008515Y-12268436D01*
X13008515Y-12268436D02*
X13008515Y-12287484D01*
X13141848Y-12087484D02*
X13160896Y-12087484D01*
X13160896Y-12087484D02*
X13179944Y-12097008D01*
X13179944Y-12097008D02*
X13189467Y-12106531D01*
X13189467Y-12106531D02*
X13198991Y-12125579D01*
X13198991Y-12125579D02*
X13208515Y-12163674D01*
X13208515Y-12163674D02*
X13208515Y-12211293D01*
X13208515Y-12211293D02*
X13198991Y-12249388D01*
X13198991Y-12249388D02*
X13189467Y-12268436D01*
X13189467Y-12268436D02*
X13179944Y-12277960D01*
X13179944Y-12277960D02*
X13160896Y-12287484D01*
X13160896Y-12287484D02*
X13141848Y-12287484D01*
X13141848Y-12287484D02*
X13122801Y-12277960D01*
X13122801Y-12277960D02*
X13113277Y-12268436D01*
X13113277Y-12268436D02*
X13103753Y-12249388D01*
X13103753Y-12249388D02*
X13094229Y-12211293D01*
X13094229Y-12211293D02*
X13094229Y-12163674D01*
X13094229Y-12163674D02*
X13103753Y-12125579D01*
X13103753Y-12125579D02*
X13113277Y-12106531D01*
X13113277Y-12106531D02*
X13122801Y-12097008D01*
X13122801Y-12097008D02*
X13141848Y-12087484D01*
X13389467Y-12087484D02*
X13294229Y-12087484D01*
X13294229Y-12087484D02*
X13284706Y-12182722D01*
X13284706Y-12182722D02*
X13294229Y-12173198D01*
X13294229Y-12173198D02*
X13313277Y-12163674D01*
X13313277Y-12163674D02*
X13360896Y-12163674D01*
X13360896Y-12163674D02*
X13379944Y-12173198D01*
X13379944Y-12173198D02*
X13389467Y-12182722D01*
X13389467Y-12182722D02*
X13398991Y-12201769D01*
X13398991Y-12201769D02*
X13398991Y-12249388D01*
X13398991Y-12249388D02*
X13389467Y-12268436D01*
X13389467Y-12268436D02*
X13379944Y-12277960D01*
X13379944Y-12277960D02*
X13360896Y-12287484D01*
X13360896Y-12287484D02*
X13313277Y-12287484D01*
X13313277Y-12287484D02*
X13294229Y-12277960D01*
X13294229Y-12277960D02*
X13284706Y-12268436D01*
X13589467Y-12287484D02*
X13475182Y-12287484D01*
X13532325Y-12287484D02*
X13532325Y-12087484D01*
X13532325Y-12087484D02*
X13513277Y-12116055D01*
X13513277Y-12116055D02*
X13494229Y-12135103D01*
X13494229Y-12135103D02*
X13475182Y-12144627D01*
X13665658Y-12106531D02*
X13675182Y-12097008D01*
X13675182Y-12097008D02*
X13694229Y-12087484D01*
X13694229Y-12087484D02*
X13741848Y-12087484D01*
X13741848Y-12087484D02*
X13760896Y-12097008D01*
X13760896Y-12097008D02*
X13770420Y-12106531D01*
X13770420Y-12106531D02*
X13779944Y-12125579D01*
X13779944Y-12125579D02*
X13779944Y-12144627D01*
X13779944Y-12144627D02*
X13770420Y-12173198D01*
X13770420Y-12173198D02*
X13656134Y-12287484D01*
X13656134Y-12287484D02*
X13779944Y-12287484D01*
X13856134Y-12087484D02*
X13856134Y-12125579D01*
X13932325Y-12087484D02*
X13932325Y-12125579D01*
X14227563Y-12363674D02*
X14218039Y-12354150D01*
X14218039Y-12354150D02*
X14198991Y-12325579D01*
X14198991Y-12325579D02*
X14189468Y-12306531D01*
X14189468Y-12306531D02*
X14179944Y-12277960D01*
X14179944Y-12277960D02*
X14170420Y-12230341D01*
X14170420Y-12230341D02*
X14170420Y-12192246D01*
X14170420Y-12192246D02*
X14179944Y-12144627D01*
X14179944Y-12144627D02*
X14189468Y-12116055D01*
X14189468Y-12116055D02*
X14198991Y-12097008D01*
X14198991Y-12097008D02*
X14218039Y-12068436D01*
X14218039Y-12068436D02*
X14227563Y-12058912D01*
X14389468Y-12154150D02*
X14389468Y-12287484D01*
X14341848Y-12077960D02*
X14294229Y-12220817D01*
X14294229Y-12220817D02*
X14418039Y-12220817D01*
X14646610Y-12287484D02*
X14646610Y-12087484D01*
X14732325Y-12287484D02*
X14732325Y-12182722D01*
X14732325Y-12182722D02*
X14722801Y-12163674D01*
X14722801Y-12163674D02*
X14703753Y-12154150D01*
X14703753Y-12154150D02*
X14675182Y-12154150D01*
X14675182Y-12154150D02*
X14656134Y-12163674D01*
X14656134Y-12163674D02*
X14646610Y-12173198D01*
X14856134Y-12287484D02*
X14837087Y-12277960D01*
X14837087Y-12277960D02*
X14827563Y-12268436D01*
X14827563Y-12268436D02*
X14818039Y-12249388D01*
X14818039Y-12249388D02*
X14818039Y-12192246D01*
X14818039Y-12192246D02*
X14827563Y-12173198D01*
X14827563Y-12173198D02*
X14837087Y-12163674D01*
X14837087Y-12163674D02*
X14856134Y-12154150D01*
X14856134Y-12154150D02*
X14884706Y-12154150D01*
X14884706Y-12154150D02*
X14903753Y-12163674D01*
X14903753Y-12163674D02*
X14913277Y-12173198D01*
X14913277Y-12173198D02*
X14922801Y-12192246D01*
X14922801Y-12192246D02*
X14922801Y-12249388D01*
X14922801Y-12249388D02*
X14913277Y-12268436D01*
X14913277Y-12268436D02*
X14903753Y-12277960D01*
X14903753Y-12277960D02*
X14884706Y-12287484D01*
X14884706Y-12287484D02*
X14856134Y-12287484D01*
X15037087Y-12287484D02*
X15018039Y-12277960D01*
X15018039Y-12277960D02*
X15008515Y-12258912D01*
X15008515Y-12258912D02*
X15008515Y-12087484D01*
X15189468Y-12277960D02*
X15170420Y-12287484D01*
X15170420Y-12287484D02*
X15132325Y-12287484D01*
X15132325Y-12287484D02*
X15113277Y-12277960D01*
X15113277Y-12277960D02*
X15103753Y-12258912D01*
X15103753Y-12258912D02*
X15103753Y-12182722D01*
X15103753Y-12182722D02*
X15113277Y-12163674D01*
X15113277Y-12163674D02*
X15132325Y-12154150D01*
X15132325Y-12154150D02*
X15170420Y-12154150D01*
X15170420Y-12154150D02*
X15189468Y-12163674D01*
X15189468Y-12163674D02*
X15198991Y-12182722D01*
X15198991Y-12182722D02*
X15198991Y-12201769D01*
X15198991Y-12201769D02*
X15103753Y-12220817D01*
X15275182Y-12277960D02*
X15294230Y-12287484D01*
X15294230Y-12287484D02*
X15332325Y-12287484D01*
X15332325Y-12287484D02*
X15351372Y-12277960D01*
X15351372Y-12277960D02*
X15360896Y-12258912D01*
X15360896Y-12258912D02*
X15360896Y-12249388D01*
X15360896Y-12249388D02*
X15351372Y-12230341D01*
X15351372Y-12230341D02*
X15332325Y-12220817D01*
X15332325Y-12220817D02*
X15303753Y-12220817D01*
X15303753Y-12220817D02*
X15284706Y-12211293D01*
X15284706Y-12211293D02*
X15275182Y-12192246D01*
X15275182Y-12192246D02*
X15275182Y-12182722D01*
X15275182Y-12182722D02*
X15284706Y-12163674D01*
X15284706Y-12163674D02*
X15303753Y-12154150D01*
X15303753Y-12154150D02*
X15332325Y-12154150D01*
X15332325Y-12154150D02*
X15351372Y-12163674D01*
X15427563Y-12363674D02*
X15437087Y-12354150D01*
X15437087Y-12354150D02*
X15456134Y-12325579D01*
X15456134Y-12325579D02*
X15465658Y-12306531D01*
X15465658Y-12306531D02*
X15475182Y-12277960D01*
X15475182Y-12277960D02*
X15484706Y-12230341D01*
X15484706Y-12230341D02*
X15484706Y-12192246D01*
X15484706Y-12192246D02*
X15475182Y-12144627D01*
X15475182Y-12144627D02*
X15465658Y-12116055D01*
X15465658Y-12116055D02*
X15456134Y-12097008D01*
X15456134Y-12097008D02*
X15437087Y-12068436D01*
X15437087Y-12068436D02*
X15427563Y-12058912D01*
M02*
